<?xml version="1.0" encoding="utf-8"?>
<!-- Uploaded to: SVG Repo, www.svgrepo.com, Generator: SVG Repo Mixer Tools -->
<svg fill="#000000" width="800px" height="800px" viewBox="0 0 32 32" version="1.1" xmlns="http://www.w3.org/2000/svg">
<title>alibaba</title>
<path d="M18.988 21.273c-1.203 0.055-1.081-0.574-0.377-1.542 1.649-2.209 4.774-5.293 4.881-7.475 0.189-2.853-2.678-3.781-5.625-3.754-2.042 0.087-3.963 0.495-5.75 1.174l0.126-0.042c-4.242 1.38-7.731 4.094-10.058 7.639l-0.044 0.072c-2.096 3.097-1.406 6.057 3.015 6.153 2.92-0.122 5.625-0.942 7.983-2.297l-0.085 0.045c0.012 0-6.356 1.816-8.695 0.479l-0.010-0.003c-0.323-0.16-0.547-0.478-0.571-0.85l-0-0.003c-0.015-1.106 1.824-2.252 2.853-2.62v-1.916c0.724 0.289 1.563 0.457 2.442 0.457 1.657 0 3.175-0.598 4.35-1.589l-0.010 0.008c0.038 0.13 0.060 0.28 0.060 0.434 0 0.044-0.002 0.087-0.005 0.13l0-0.006h0.464c0.004-0.039 0.006-0.085 0.006-0.131 0-0.279-0.082-0.539-0.224-0.756l0.003 0.005c-0.247-0.381-0.664-0.633-1.141-0.65l-0.002-0c0.272 0.136 0.495 0.334 0.657 0.576l0.004 0.006c-1.068 0.901-2.459 1.448-3.978 1.448-0.661 0-1.298-0.104-1.895-0.295l0.044 0.012 1.512-1.5-0.42-1.092c2.766-1.061 6.047-1.965 9.434-2.558l0.328-0.047-0.932-0.78 0.486-0.3c2.512 0.71 4.155 1.231 4.065 2.563-0.059 0.289-0.146 0.544-0.261 0.784l0.009-0.020c-1.173 1.83-2.421 3.422-3.801 4.888l0.016-0.017c-0.537 0.586-1.048 1.223-1.516 1.892l-0.040 0.060c-0.376 0.492-0.625 1.099-0.687 1.761l-0.001 0.014c0.054 4.379 12.914-2.049 15.401-3.753-3.496 1.72-7.56 2.923-11.848 3.383l-0.16 0.014z"></path>
</svg>