<svg id="Layer_1" data-name="Layer 1" xmlns="http://www.w3.org/2000/svg" viewBox="0 0 1000 1000"><defs><style>.cls-1{fill:#b1b7bd;}.cls-2{fill:#b52025;}.cls-3{fill:#fff;}</style></defs><path class="cls-1" d="M688.32,416.12V452c0,66.9-32.89,214.67-193.88,293.47C333.25,666.87,300.38,518.91,300.38,452V416.12Z"/><path class="cls-2" d="M494.44,254.55s126.6-1.89,193.88,24.76V416.12H300.38V279.31c67.46-26.46,194.06-24.76,194.06-24.76"/><path class="cls-3" d="M342.51,294.62a8.37,8.37,0,0,0-.94.18,3.13,3.13,0,0,1,1.14-1.13,4.65,4.65,0,0,1,3.4-1.33,7.11,7.11,0,0,1,4.35,1.71c-.2.19-.58.37-.76.57a4.3,4.3,0,0,0-1.33,1.32,5.63,5.63,0,0,0-4-1.32,3.07,3.07,0,0,0-1.9,0m4,11.71a6.93,6.93,0,0,0-2.65-.38,4.72,4.72,0,0,0-4.16,2.08,6.78,6.78,0,0,0-1.14,2.26c.2-.18.58-.37.76-.56a7.14,7.14,0,0,1,4-1.13c.76,0,1.32.19,1.7.19a13.14,13.14,0,0,1,1.52-2.46h0m1.31-6.62a.6.6,0,0,0-.18.38v.19c0,.19-.2.38-.2.76a1.88,1.88,0,0,0,1.14,1.7c1.14.56,3.21,2.07,4.92,3.21a10.65,10.65,0,0,1,2.83-4.34l-2.65-5.1v-.2l-.18-.37a1.47,1.47,0,0,0-1-.38,2.47,2.47,0,0,0-1.32.57,18,18,0,0,0-3.41,3.58m9.65,87.69a7.74,7.74,0,0,0-.76,3.39V391c0-.19.18-.38.38-.56a7.8,7.8,0,0,1,3.78-3.4c-.2-.76-.38-1.7-.57-2.46a6.72,6.72,0,0,0-2.83,2.84m5.09-61.23c2.46,2.08,4,2.65,4.73,2.65a1.42,1.42,0,0,0,1.32-.76c.19-.38.56-.76.94-1.32a2.82,2.82,0,0,0,.38-1.71,6.42,6.42,0,0,0-.76-3c-.18-.56-5.85-13.41-7.37-18.51a12.58,12.58,0,0,0-.38-1.89l-.18-.19h-.37a3.1,3.1,0,0,0-1.52.56,9.39,9.39,0,0,0-4.72,8.51c.18,6,4.72,13.23,7.93,15.68m-9.82-17v-.75c0-.38-2.08-1.14-2.26-1.14a2.48,2.48,0,0,0-2.47.57,7.66,7.66,0,0,0-1.7,4,2.18,2.18,0,0,0,.57,1.51,5.59,5.59,0,0,0,1.89,1.13c1.71.57,3.4.95,4.91,1.52a20.16,20.16,0,0,1-.94-5.68Zm8.88-21h.56a6.64,6.64,0,0,1,2.28.57,6.28,6.28,0,0,0-2.28-4.73,5.36,5.36,0,0,0-3.58-1.13h-.75c.18.18.56.38.75.56a8.22,8.22,0,0,1,3,4.73m-4.91,7a11.6,11.6,0,0,0,.76,2.46,16.91,16.91,0,0,1,.75,2.45c.19,0,.19-.19.38-.19a6.09,6.09,0,0,1,2.44-.75,2.53,2.53,0,0,1,1.14.18,23.39,23.39,0,0,1,1-2.45,12.63,12.63,0,0,0,.74-2.64v-1.33a2.53,2.53,0,0,0-.38-1.7,1.45,1.45,0,0,0-1.5-.76,2.25,2.25,0,0,0-1.13.2c-1.33.38-3.22.75-4,2.07a2.77,2.77,0,0,0-.18,2.46m22.87,2.46a7.17,7.17,0,0,0,1.69-4.35,5.38,5.38,0,0,0-1.32-3.4,5.82,5.82,0,0,0-1.13-1.13,7.93,7.93,0,0,1,.18.94,5,5,0,0,1,.2,1.7,6.75,6.75,0,0,1-1.33,4l1.71,2.27m43.64-8.7h0a4.93,4.93,0,0,1,.95-2.27c.56-.75,1.51-1.7,1.13-2.64-.19-.57-.95-.95-.95-1.7a1,1,0,0,1,.57-.94,3.82,3.82,0,0,1,1.52-.76c1.7-.57,7-2.45,7-2.45.56-.58.75-1,1.32-1.52s1.7-1.13,4-1.51c5.47-1.13,20.59-2.08,21.91-2.27a3.09,3.09,0,0,1,1.71.76,19.13,19.13,0,0,1,2.64,2.83c.38.38.76.95.94,1.13a3.09,3.09,0,0,0,.38.58l.2.37.18-.19a.89.89,0,0,1,.57-.18c.37,0,.75-.2,1.13-.2a3.7,3.7,0,0,1,1.89.57,4.21,4.21,0,0,1,1.52,2.46,6.7,6.7,0,0,1,.18,1.89c0,3.59-2.46,7.18-4.15,9.06l-.2.2.2.18c5.67,8.32,6.61,15.88,6.61,18.33a23.22,23.22,0,0,1-1.7-2.64,2,2,0,0,1-.38-.57,4.07,4.07,0,0,0-.94-.76H471a.76.76,0,0,0-.76.38,1.44,1.44,0,0,0-.38.76,2.41,2.41,0,0,0,.19,1.14,60.88,60.88,0,0,1,2.83,18.89v.38c-.94-1.51-2.45-4-2.45-4a1.78,1.78,0,0,0-1.51-1.14,1,1,0,0,0-.76.38,1.17,1.17,0,0,0-.19.76.7.7,0,0,0,.19.57,25.72,25.72,0,0,1,1.7,9.44,26.68,26.68,0,0,1-1.7,9.65,20.3,20.3,0,0,1-1.13,2.82c0,.2-.18.38-.18.58a12.43,12.43,0,0,0-.76-1.33,23.72,23.72,0,0,1-1.7-3.21l-.57-1.14a1.52,1.52,0,0,0-.76-.38,1,1,0,0,0-.75.38,1.44,1.44,0,0,0-.19.95v2.46a20.46,20.46,0,0,1-5.29,14.17,17,17,0,0,1-3.6,3.21,4.15,4.15,0,0,1-1.13.76v-9.45a2.83,2.83,0,0,0-.37-1.14c-.2-.18-.38-.56-.76-.56a.69.69,0,0,0-.57.19c-.18.19-.38.37-.38.56-1.89,4.35-3.78,6.81-5.48,8.31a6.62,6.62,0,0,1-4.15,1.71c-.57,0-.95,0-1.14-.19.19-.38.57-.94.95-1.7a11.34,11.34,0,0,0,1.13-4.35,3.81,3.81,0,0,0-1.13-2.83c-.76-.76-2.08-1.14-4.16-1.14a7.06,7.06,0,0,0-1.89.19c-4.54.57-10.77,3.4-16.06,6.05-4.34,2.26-8.13,4.53-9.07,5.1a13,13,0,0,1-1.51-6,11.65,11.65,0,0,1,1.69-6.24,6.55,6.55,0,0,1,1.14-1.7c.19-.19.19-.38.37-.38l.2-.19.38-.38a1.45,1.45,0,0,0,.37-.94,1,1,0,0,0-1.32-.95,10.5,10.5,0,0,0-5.29,1.89,10.31,10.31,0,0,0-2.08,1.7c.37-7.17,2.83-11.71,5.67-14.73a16.91,16.91,0,0,1,6.61-4.54c.57-.19.95-.37,1.14-.75a1.56,1.56,0,0,0,.38-.76v-.38c0-.19-.2-.37-.38-.56a1.88,1.88,0,0,0-1.14-.38s-1.7-.38-3.21-.76c-.75-.19-1.7-.38-2.26-.57-.2,0-.38-.18-.58-.18,4.73-5.86,11.54-6.81,15.12-6.81h3.41a2.74,2.74,0,0,0,1.32-.38,1,1,0,0,0,.56-.94c0-.38-.19-.75-.37-.75a.56.56,0,0,0-.37-.2h-.2a29.47,29.47,0,0,0-2.64-1.51,11.73,11.73,0,0,1-1.14-.75.59.59,0,0,1-.19-.38v-.19a7.76,7.76,0,0,1,1.89.19,9.05,9.05,0,0,1,2.83.38,15,15,0,0,0,4.54,1,7,7,0,0,0,5.48-2.28,12.64,12.64,0,0,0,2.27-3.2,3.07,3.07,0,0,0,.56-1.71,1.91,1.91,0,0,0-1.5-2.08,7.42,7.42,0,0,0-2.46-.38,4.75,4.75,0,0,0-3.59,1.33,2.6,2.6,0,0,1-1.7.95.68.68,0,0,1-.57-.2h-.19L430,307.08a6.38,6.38,0,0,1-1.88-.75c-.38-.19-.38-.38-.38-.38l.18-.19a.7.7,0,0,1,.38-.19,5.07,5.07,0,0,1,3-.94c1.13,0,2.64.18,5.29.18h1.51a4.66,4.66,0,0,0,4-1.69,4.75,4.75,0,0,0,.94-3,6.7,6.7,0,0,0-.38-2.27,40.57,40.57,0,0,0-4.15-8.31,3.16,3.16,0,0,0-2.84-1.7,8.16,8.16,0,0,0-4.15,1.7,9.45,9.45,0,0,0-1.9,1.7,3.64,3.64,0,0,1-2.83,1.13,3.74,3.74,0,0,1-2.64-1.13,5.09,5.09,0,0,1-.95-2.27m14.55-7.74a18.74,18.74,0,0,1,2.08,1.13l.19.19.19-.19s.76-.76,1.7-1.51c.37-.38,1.88-1.32,1.7-1.89-.19-.95-4.35.19-4.91.38a4.28,4.28,0,0,0-1.33.57.67.67,0,0,0-.38.18l-.19.19c-.75.76.76.95.95.95m-73.69,21.73c.94,3.77,4.53,12.09,6.23,16.06.56,1.32.94,2.08.94,2.08a9.91,9.91,0,0,1,1,4,6.06,6.06,0,0,1-.76,3c-.76,1.32-1.52,2.08-1.52,2.27v.18a.72.72,0,0,0-.18.38,3.43,3.43,0,0,0-.38,1.51,5,5,0,0,0,.76,2.46s.74,1.14,1.5,2.46,1.71,2.83,2.27,3.58c.19.2.38.58.57.76l.38.38v-.18a7,7,0,0,0,.19-1.33V340a13.08,13.08,0,0,1,.18-2.64,1.09,1.09,0,0,1,1.14-1.13,1.4,1.4,0,0,1,1.13.94c.19.57.38,1.7.76,2.83a.59.59,0,0,0,.19.38,2.92,2.92,0,0,0,.38.94,28.74,28.74,0,0,0,1.69,3,15,15,0,0,0,6.44,5.85v-4.72c0-.2.37-.38.55-.38s.38.18.58.18c.18.2.38.2.38.38.18.19.18.38.37.38l.19.19a2.23,2.23,0,0,1,.37.56c.19.38.76.95,1.14,1.71a42.33,42.33,0,0,0,4.16,5.29c3.21,3.59,7.17,7,10.77,7.74a16.31,16.31,0,0,1-.38-3,15.51,15.51,0,0,1,1.13-5.86,3.94,3.94,0,0,1-1.13.76l-5.1,4.34.19-6.61c.38-6.79,2.45-12.28,6.42-16.62a23.15,23.15,0,0,1,4.15-3.4c-.55-.2-1.13-.2-1.51-.38-.18,0-.56-.2-.75-.2l-1.51-.37a61.44,61.44,0,0,1-33.83-16.63,8.61,8.61,0,0,1-3-6.24,5.87,5.87,0,0,1,1.5-4,9.65,9.65,0,0,1,5.11-3.21h.18l.38-.19c.19-.19.38-.38.38-.57,0-.37-.38-1.31-1.89-2.45-1.89-1.51-3.4-2.64-4.34-3.4a9.79,9.79,0,0,0-1.32-1c-.2,0-.58,0-1.14.76-1.13,1.13-4.91,4.15-4.91,8.13-.2.19-.2.75,0,1.51m13.6,67.27h0v-.38a1.93,1.93,0,0,0-.94-1.51,19,19,0,0,1-2.08-1.7c-.57-.38-.76-.76-.95-.76h-.37a1.82,1.82,0,0,0-1.13.38c-.2,0-.2.19-.58.19a3.57,3.57,0,0,1-.94.56,14.85,14.85,0,0,0-2.64,1.71l.56.56a13.67,13.67,0,0,0,8.31,5.1c0-.38-.18-.94-.18-1.32a21.81,21.81,0,0,1,.94-2.83M362,369.44a6.42,6.42,0,0,0-4.15,1.51,8.43,8.43,0,0,0-1.34,1.33c.2,0,.38-.19.58-.19a7.49,7.49,0,0,1,2.83-.57,6.88,6.88,0,0,1,2.08.38,5.88,5.88,0,0,1,1.7-2.08,5.49,5.49,0,0,0-1.7-.38m12.28-9.82a8.26,8.26,0,0,0-3.21-1.14c.18.19.38.19.56.38,2.27,1.7,2.84,3.59,2.84,4.72.19,0,.19,0,.38.19H375l.18.19,2.27,1.89a7.66,7.66,0,0,0-3.21-6.23m236.58,16.81h0c.57-.19.95-.75,1.51-1.32a2.62,2.62,0,0,1,.76-.56,7.06,7.06,0,0,0-3.21-.76,7.41,7.41,0,0,0-4.16,1.51,8.2,8.2,0,0,0-1.32,1.13c.18,0,.37-.19.56-.19a7.38,7.38,0,0,1,2.65-.56,8.75,8.75,0,0,1,3.21.75m-.38,4.91a7,7,0,0,0,1.71,3.79,3.73,3.73,0,0,0,2.45,1.13,14.57,14.57,0,0,0,2.83.38c.75,0,2.84-.38,2.09-1.51a13.41,13.41,0,0,1-1.34-1.71,11.12,11.12,0,0,1-.93-2.26,21.85,21.85,0,0,1-.76-3.4,2.7,2.7,0,0,0-.38-1.14,1,1,0,0,0-.94-.56c-.19,0-.57.18-1.14.75a31.19,31.19,0,0,0-2.84,3,1.4,1.4,0,0,0-.75,1.51M602,391.93a8,8,0,0,0-1,3.78v.19c.2-.19.2-.38.38-.57a6.78,6.78,0,0,1,4.35-3.59c0-.38-.19-.76-.19-1.14a4.16,4.16,0,0,1,.19-1.51v-.18a7.8,7.8,0,0,0-3.78,3M501.24,372.47h3a8.23,8.23,0,0,0-3-4.16,7.86,7.86,0,0,0-3.77-1.13h-1c.19,0,.38.18.57.18,2.84,1.33,3.77,3.21,4,4.16Zm117,24.75a2.81,2.81,0,0,1-.55-.76,7.62,7.62,0,0,0-1.33,4.17,7.2,7.2,0,0,0,2.26,4.91c0-.2-.18-.38-.18-.58a8,8,0,0,1-.2-2.07,5,5,0,0,1,1.14-3.59l.38-.57-.18-.19a2.94,2.94,0,0,0-1.34-1.32m16.08.57h0l-.2-.57h-2.83a6.6,6.6,0,0,0,7,5.29h.19c-.19,0-.38-.19-.57-.37a6.93,6.93,0,0,1-3.58-4.35m-262.67-4.53a6.29,6.29,0,0,0-2.08,4.91c0,.75.2,1.51.2,2.08,0-.2.18-.38.18-.57a8,8,0,0,1,2.84-4.16,5.43,5.43,0,0,0-.94-1.33c0-.37-.2-.56-.2-.93M481.4,374.73a8.42,8.42,0,0,0-4.34,1.51h1.51a11.2,11.2,0,0,1,2.65.38,12.29,12.29,0,0,1,1.7-1.69,4.5,4.5,0,0,0-1.52-.2m2.45,8.69v.38c0,.38,0,.38.38.57a4.41,4.41,0,0,0,2.08.38h1.52a3.24,3.24,0,0,0,1.51-.19c.19-.38.19-.76.38-1.14a9.73,9.73,0,0,0,.57-2.26,7.44,7.44,0,0,0,.18-1.89V378a23.61,23.61,0,0,0-2.46-2.27,2.66,2.66,0,0,0-1.32-.57,3,3,0,0,0-1.51.57,10.3,10.3,0,0,0-1.7,1.32,2.42,2.42,0,0,0-.76,1.32,1.22,1.22,0,0,0,.38.95,5,5,0,0,1,.95,2.83,4.73,4.73,0,0,0-.2,1.32m155,3.78a3,3,0,0,1-.57-1.69c0-1.52,1-2.65,1.7-3.79.19-.18.19-.38.37-.38a6.93,6.93,0,0,0,1.14-4c0-1.9-.76-4.35-3.21-7a2.75,2.75,0,0,1-.57-1.9,12.32,12.32,0,0,1,1.14-4.72,15.07,15.07,0,0,0,1.5-5.29,5.08,5.08,0,0,0-.75-2.64c-.37,1.51-.75,4.72-2.83,4.53-1.52,0-1.33-1.89-1.33-3a2.07,2.07,0,0,1,.19-1,15.26,15.26,0,0,0,.19-3.21,17.48,17.48,0,0,0-.95-6.05c-.37,1.33-.55,2.27-1.13,2.84a1.36,1.36,0,0,1-.76.37,1,1,0,0,1-.93-.56c-.19-.38-.38-.57-.57-.94-.19-.76-.19-1.33-.38-1.33a18.65,18.65,0,0,0-.76-3.4,34.48,34.48,0,0,0-1.32-4.53,9.76,9.76,0,0,1-.38,2.07c-.19.95-.38,2.28-1.51,2.66-.76.18-1.14-.58-1.14-1.33-.18-.76-.38-1.71-.56-2.46a33.87,33.87,0,0,0-1.32-4.16,2.67,2.67,0,0,0-.76-1.32c0,.19-.19.38-.19.57A6.83,6.83,0,0,1,622,337.5a18.5,18.5,0,0,1-4,4.73,12.57,12.57,0,0,1-8.51,2.84,29,29,0,0,1-14.36-4.35c-2.84-1.89-7.75-4.72-11-7l-.76-.57H588c4.91,0,10.21-.57,13.61-2.27,4.35-2.07,6.43-4.91,8.5-7.55s4-5.48,7.75-7.56a13.62,13.62,0,0,1,7-1.71,17.45,17.45,0,0,1,5.85.95c-.94-3.4-4.91-6.42-9.83-6.42-3.58,0-7.37,1.51-11,5.47l-.57.57v-1.32c0-.38-.19-.94-.19-1.51a16.47,16.47,0,0,0-2.08-4.73c-2.46-3.4-7.19-6.8-16.82-6.8h-2.45c-7.94.38-22.68,5.11-36.28,7.75-13.23,2.64-32.88,3.78-41.2,3.78a46.65,46.65,0,0,1-9.07-.94,13,13,0,0,1-6.42-3.22,5.57,5.57,0,0,1-1.52-3.77,6.15,6.15,0,0,1,3.79-5.86,16.74,16.74,0,0,1,6.61-1.14c6.42,0,15.3,4,22.48,6.62A36,36,0,0,0,539,305.39c7.37,0,16.83-4,21.55-5.87a29.88,29.88,0,0,1,12.47-2.64,34.65,34.65,0,0,1,4.34.19c-2.07-2.27-6.42-4.54-12.09-4.54A25.2,25.2,0,0,0,553,295.94l-.38.19-.19-.38a2.75,2.75,0,0,1-.38-1.33,6.07,6.07,0,0,1,1.7-3.77,8.68,8.68,0,0,1,4-2.65,17,17,0,0,0-5.29-1.7,50.17,50.17,0,0,0-10-1.13h-1.33a40.25,40.25,0,0,0-14.36,3.21c-4.16,1.51-8.12,3-14,3h-5.1c-5.67,0-10.77.76-14.56,2.46-3.77,1.89-6,4.72-6,9.07,0,3.77,2.27,7,6.42,9.45,4.17,2.26,10.21,3.59,17.58,3.59h.38c18.51-.19,40.81-4.54,54.42-6.81,4.53-.75,14-3.4,22.1-3.4,3.79,0,7.19.57,9.64,2.08,2.65,1.52,4.16,4.16,4.16,7.94a9.2,9.2,0,0,1-2.08,6.23c-1.7,1.89-4.53,3.4-9.26,3.4-5.47,0-11.71-1.51-19.28-2.64h-.55c-1.52-.19-3.22-.38-5.11-.76a328.71,328.71,0,0,0-33.07-2.27h-2.08a265.9,265.9,0,0,0-28.91,2.65c-11.52,1.89-22.11,4.35-25.51,5.1v.38l-.19,10.58-3-4.72v.56a36.18,36.18,0,0,1-1.7,10.59,27.67,27.67,0,0,1-1.32,3,.7.7,0,0,0-.2.58L467,353.19l-2.27-3.78a23.3,23.3,0,0,1-5.66,11.91,41.57,41.57,0,0,1-3.79,3.4l-.37.38c-.57.37-.95.75-1.33.94l-4.53,2.65v-7.94a22,22,0,0,1-2.84,3,8.9,8.9,0,0,1-6,2.46,7.93,7.93,0,0,1-2.08-.38l-3.78-1.13,2.07-3.22a3.4,3.4,0,0,0,.76-1.51,7.1,7.1,0,0,0,.95-3,.7.7,0,0,0-.19-.57,3.83,3.83,0,0,0-2.07-.38,4.13,4.13,0,0,0-1.52.19c-2.27.19-6.81,1.51-15.12,5.86-4.34,2.27-8.51,4.73-12.66,7.18a68.84,68.84,0,0,1-8.12,4.54c-4,2.07-8.13,4-12.47,4.53a22,22,0,0,1-3.6.38,5.82,5.82,0,0,1-4.53-1.7,14.73,14.73,0,0,1-5.11-1.32,29.83,29.83,0,0,1-4.34-3,22.76,22.76,0,0,1-2.08-2.27A12.25,12.25,0,0,0,362,378v3.39h1.14a64.53,64.53,0,0,0,13.6-1.31h.38a1.29,1.29,0,0,1,1.13.75v.38a1.28,1.28,0,0,1-.76,1.13s-5.1,1.51-14.17,1.51h-.94a14.23,14.23,0,0,0,1.88,6.24,5.35,5.35,0,0,0,4,2.65h.19c7-4.91,11.53-6.43,11.71-6.43h.38a1.28,1.28,0,0,1,1.14.76v.38a1.56,1.56,0,0,1-.76,1.13h-.18c-.2,0-.38.18-.95.38-.76.37-1.89.75-3.21,1.51-.95.56-1.89,1.13-3,1.7v.19c0,.19,0,.38.38.95.95,1.51,2.08,3.39,2.84,4.53a3.7,3.7,0,0,0,2.84,1.7c1.13,0,2.63-.76,4.34-3.22a6.06,6.06,0,0,1,5.1-2.45l6.23-.38h.58a6.5,6.5,0,0,1,1.12-.18,5.29,5.29,0,0,0,2.46-1.71,4.34,4.34,0,0,1,1.33-1.32,2.76,2.76,0,0,1,1.7-.38,25.4,25.4,0,0,1,4.15.75,24.2,24.2,0,0,0,6.24,1.14,2.39,2.39,0,0,0,1.13-.19l-.76-.76a16,16,0,0,1-1.7-1.88,2,2,0,0,1-.56-1.33,1.22,1.22,0,0,1,.18-.76,1.67,1.67,0,0,1,1.14-.56,1.4,1.4,0,0,1,.94.38c.2.18.58.38.58.56,2.64,1.89,7.55,3.22,11.52,3.22a7.75,7.75,0,0,0,3-.38,6.4,6.4,0,0,1-2.26-1.71,1.68,1.68,0,0,1-.57-1.31,1.41,1.41,0,0,1,.38-.76,1.56,1.56,0,0,1,1.31-.38,20.43,20.43,0,0,1,2.84.38,3,3,0,0,1,.76.19,11.65,11.65,0,0,1,1.89.37,42.51,42.51,0,0,0,5.48.58,9.72,9.72,0,0,0,5.11-1.14c-2.09-1.89-3.41-3.21-3.41-3.21a1.42,1.42,0,0,1-.57-1.13,1.24,1.24,0,0,1,.38-1c.19-.37.76-.37.95-.37a2.81,2.81,0,0,1,1.69.57s.38.18,1,.38,1.31.38,2.26.75a24.2,24.2,0,0,0,6.61.94,9,9,0,0,0,5.11-1.31,7.72,7.72,0,0,1-2.46-1.51,1.45,1.45,0,0,1-.38-1,1.44,1.44,0,0,1,.19-.76,1,1,0,0,1,.75-.56,1.71,1.71,0,0,1,.95-.19h.38c.75,0,1.32.19,2.08.19a13.42,13.42,0,0,0,6.61-1.52l-3.78-4.72a12,12,0,0,1,1.7-.76,9.46,9.46,0,0,1,1.88-.75c1.52-.38,3.6-.95,6.06-1.7a100.17,100.17,0,0,0,18.52-7.94c13.41-7.37,26.64-16.63,39.86-19.85a42.63,42.63,0,0,1,18.71-.18c2.46.56,5.3,2.64,8.13,5.48,3,2.83,6.05,6.24,8.69,9.06a63.63,63.63,0,0,0,6.8,6.62l.57.57a4.75,4.75,0,0,0,1.13.76c.76.37,1.71,1.13,2.65,1.7a25.44,25.44,0,0,0,7,3c-.19-.75-1.13-5.67,1-4.72.93.37,1.31,1.32,2.07,2.08,1,.75,1.7,1.51,2.84,2.27a8.87,8.87,0,0,0,4.91,1.88,4.82,4.82,0,0,0,1.52-.37c-1-1.14-1.7-2.09-1.7-2.09a1.29,1.29,0,0,1-.38-.75c0-.38.18-.57.56-.76a3.9,3.9,0,0,1,1.7-.37h4a60,60,0,0,0,7.94-.57,36.66,36.66,0,0,0,8.31-2.27,1.89,1.89,0,0,1,.76-.19,6.4,6.4,0,0,1,2.08-.37,5.41,5.41,0,0,1,1.69.37,5.16,5.16,0,0,1,1.71,2.27c.38,1,.75,1.89.94,2.27,1.14,2.64,3.41,5.67,3.41,10.77a8.73,8.73,0,0,1-.2,2.27,16.17,16.17,0,0,1-1.88,6.23c-2.46,3.4-4.91,3.59-5.29,3.59h-1.33a4.67,4.67,0,0,1-1.51-.19c-1.7-.37-3.4-1.13-4.73-1.13a2.49,2.49,0,0,0-1.13.18,3.17,3.17,0,0,0-1.88,2.84,6.34,6.34,0,0,0,.75,2.65.56.56,0,0,0,.19.37,4.67,4.67,0,0,1,.56.95,3.55,3.55,0,0,0,3,1.32h.56a5.4,5.4,0,0,0,3.22-1.69,8.88,8.88,0,0,0,1.89-2.08l.18-.19,2.27-3.22a.66.66,0,0,0,.19-.37,1,1,0,0,1,.76-.38.69.69,0,0,1,.56.18,1.06,1.06,0,0,1,.57,1,.7.7,0,0,1-.19.57.62.62,0,0,1-.19.37,1.36,1.36,0,0,1-.56.57,5,5,0,0,1-1,1.14c-.76.95-1.32,1.7-1.32,1.7v.56a1,1,0,0,0,.56.95c.57.56,1.14,1.32,1.71,1.89a2.63,2.63,0,0,0,1.51,1.32c1.51.38,3-1.32,3.77-2.27a5.72,5.72,0,0,0,1.71-2.64,12.15,12.15,0,0,0,.56-4.35v-3a1.44,1.44,0,0,1,.19-.76,2.81,2.81,0,0,1,.76-.56h.19c.57,0,1,.38,1,.56a1,1,0,0,1,.18.57v4.53a10.28,10.28,0,0,1-.37,2.84V394c0,.18,0,.38.19.38a.63.63,0,0,0,.37.18,1.36,1.36,0,0,0,.76.2l5.48-.2a2.84,2.84,0,0,0,1.51-.38,3.34,3.34,0,0,0,1.32-2.45V391a3.2,3.2,0,0,0-.76-2.27,4,4,0,0,1-1.88-1.51m-80.69-13.41a12.41,12.41,0,0,1-4-1.32,9,9,0,0,1-4.35-7c0-2.46,1.51-5.85,3.79-8.31A29.79,29.79,0,0,1,558.5,353l-6.81-6.8c-2.07-1.7-4.16-3.4-6.79-4.16-2.84-.76-5.49.19-7.95,1.32-1.5.76-3.21,1.52-4.71,2.46-6.06,3.78-9.07,10.77-10,13.23.2-.19.58-.38,1-.75a9.21,9.21,0,0,1,2.83-1.71c.18,0,.56-.19.75-.19a1.15,1.15,0,0,1,1.14.57,2,2,0,0,1,.19.95,2.28,2.28,0,0,1-.19.94,2.31,2.31,0,0,0-.19.95,18.72,18.72,0,0,0-.57,2.26,22.17,22.17,0,0,0-.76,5.29c1.14-1.7,2.45-3,2.45-3.21l.2-.19c.18-.19.38-.19.76-.19a.68.68,0,0,1,.56.19c.2.19.2.38.38.57v.76c0,2.27-.56,4.72.76,6.8,1.14,1.88,1.7,3.39.76,5.48-.76,1.7-2.66,3.21-4.16,4.35a6.82,6.82,0,0,1-3.59,1.13c-1.32.18-3.41,0-5.11.56-2.27.76-4.16,2.46-6.42,3a8.14,8.14,0,0,1-2.08.18c-2.65,0-5.86-.75-7.75-2.83a5.12,5.12,0,0,1-1.32-3.21c0-2.83,2.46-5.3,2.65-5.48l.19-.19c0-.18.19-.38.19-.56v-.2a.86.86,0,0,0-.57-.18h-7a3.88,3.88,0,0,0-2.46.94l-.19.19-.38.38c-.19.38-.57.94-.95,1.7-.37.94-.18,2.45-.37,4.34-.37,1.7-1.33,3.79-1.51,5.1v.76a7.07,7.07,0,0,0,1.51,4.35c2.27,3.21,6.62,5.1,10.58,6.42a66.69,66.69,0,0,0,9.26,1.9h.56c.58-.2,6.81-1.9,8.88-2.28s7.37-.94,9.65-1.32l-3.41-1.7-.37-.38a1.4,1.4,0,0,1-.38-.94.71.71,0,0,1,.19-.57c.19-.37.38-.56.56-.56a1.13,1.13,0,0,1,.75-.19h.58a14.71,14.71,0,0,0,2.08.19c1.32,0,3,.19,4.71.19a24,24,0,0,0,3.79-.19c2.83-.38,4.34-1.52,4.91-2.27a.71.71,0,0,1-.57-.19,5.72,5.72,0,0,0-1.51-.38,4.93,4.93,0,0,1-1.7-1c-.19-.18-.38-.18-.57-.38a1.42,1.42,0,0,1-.38-.93v-.2c0-.18.2-.37.38-.56s.38-.19.57-.38a1.89,1.89,0,0,1,.76-.19s1.13-.19,2.45-.38a17.79,17.79,0,0,0,4.35-1.13,34.78,34.78,0,0,0,4.92-2.84l-1.14-.56a9,9,0,0,1-2.84-1.7l-.37-.38a1.42,1.42,0,0,1-.38-.94v-.38c.19-.19.19-.38.38-.38a.67.67,0,0,1,.56-.19,1.89,1.89,0,0,1,.76-.19,1.86,1.86,0,0,0,.75-.19c.57-.19,1.14-.19,1.9-.38a26.43,26.43,0,0,0,4.53-1.5,2.7,2.7,0,0,0,1.32-1.14h-.19c0,.18-.56.18-1.13,0M478,389.66a7.66,7.66,0,0,0-1.14,1.89c.2-.19.38-.19.58-.38a7.61,7.61,0,0,1,3.58-1.7c0-.38.2-.94.2-1.14v-.18c.18-.37.18-.75.37-.95a5.69,5.69,0,0,0-3.59,2.46m12.84,5.67a4.5,4.5,0,0,0-.93.75l-.57.57c-.19.19-.19.38-.38.57a8.23,8.23,0,0,0-.19.95,3.06,3.06,0,0,0,.57,1.7,5.85,5.85,0,0,0,2.26,1.69,6.59,6.59,0,0,0,2.46.58,3.08,3.08,0,0,0,2.65-1.33,8.59,8.59,0,0,0,1-1.89,18.69,18.69,0,0,1-6.06-4l-.76.38m-.74-2.45a9.08,9.08,0,0,1-1.52-5.1v-1c-.75,0-1.7-.18-2.46-.18H485c-.38,0-.56,0-.76.38a5.34,5.34,0,0,0-.93,1.89,7.68,7.68,0,0,0-.38,2.26,1.49,1.49,0,0,0,.18.95,1.54,1.54,0,0,0,.75.76,11.33,11.33,0,0,0,4.16.94h.2c.18,0,.75,0,.94-.19.76-.19,1-.57,1-.75m-2.84,6a7.63,7.63,0,0,0-1.51,4.72v.19c0-.19.19-.38.37-.56a4.6,4.6,0,0,1,1.52-2.09,5.45,5.45,0,0,1-.38-1.88c-.19,0,0-.19,0-.38M398.82,296.69a16.77,16.77,0,0,0,5.48,2.83,20.29,20.29,0,0,0,5.67.76A62.69,62.69,0,0,0,420.55,299a62.33,62.33,0,0,1,10.21-1.14,15.9,15.9,0,0,1,9.83,3,18,18,0,0,0-9.64-4.34,50.15,50.15,0,0,0-10.58-.2,59.89,59.89,0,0,1-10.2,0c-3.22-.37-6.25-1.51-8.13-3.59l-.2-.19a2.45,2.45,0,0,0-3.58.38,2.92,2.92,0,0,0,.56,3.78"/><path class="cls-3" d="M408.27,659.31c.57-3,1.13-6.23,1.89-9.07,5.86,3.22,15.5,4.91,26.65,6.8,14.54,2.65,31.74,5.67,43.84,12.85-3-1.13-6.81-2.45-11.34-3.78-15.5-4.16-23.25-3.78-31-3.59a92.86,92.86,0,0,1-30.05-3.21m173.1,4.15a114.19,114.19,0,0,1-31.75,2.84c-8.13-.38-15.88-.56-31.56,3a89.63,89.63,0,0,0-13.41,3.78,125.76,125.76,0,0,1,15.11-2.45c16.44-1.71,24.57-.57,32.5.56,7.56,1.14,15.31,2.27,30.61.76-.56-3-1.12-5.67-1.5-8.51m-73.14,6.24c3-1.13,6.8-2.46,11.34-3.78,15.5-4.16,23.24-3.78,31-3.59,7.37.38,15.12.57,29.85-3.22-.56-3-1.13-6.23-1.88-9.06-5.86,3.21-15.49,4.91-26.65,6.8-14.36,2.64-31.55,5.67-43.65,12.85m-69-3.4a114.1,114.1,0,0,1-31.74-2.84c-.57,2.84-.95,5.48-1.32,8.32,15.3,1.51,23.05.38,30.61-.75,7.93-1.14,15.87-2.27,32.5-.57a125.76,125.76,0,0,1,15.11,2.45c-3.39-1.13-7.75-2.45-13.41-3.77-16.06-3.4-23.62-3.22-31.75-2.84m-12.09-68.6-16.06,48.19c13.41,8.69,62.93,6.61,81.64,28.54V623.22c-4.93-21.92-52.16-16.82-65.58-25.52m134.35,0c-13.42,8.7-60.66,3.6-65.57,25.52v51.21c18.52-22.11,68-19.85,81.63-28.54Z"/><path class="cls-3" d="M341.57,469.22l2.27,3.77a5,5,0,0,0,4.34,2.46h.2a20,20,0,0,0-1.9,7.75v1.89c0,1.51,0,4-.56,5.1-.2.38-.76.94-1.14,1.52-1.13,1.13-2.83,3-1.89,5.66s3.41,3.21,4.91,3.4c.58.19,1.34.19,1.7.57,1.14.56,2.46,2.45,3.41,3.77a10.72,10.72,0,0,0,1.13,1.52,16.48,16.48,0,0,0,7.18,5.67,4.84,4.84,0,0,0-2.46,5.48l.95,4.34a5.05,5.05,0,0,0,4.91,4,2.47,2.47,0,0,0,1.13-.18l4.36-.95a5,5,0,0,0,3.77-3.4,20,20,0,0,0,6.8,4.15l1.7.58c1.52.55,3.78,1.13,4.73,2.07a4.21,4.21,0,0,1,.94,1.51c.76,1.33,2.08,3.59,4.92,3.59s4.15-2.26,4.91-3.59a11.43,11.43,0,0,1,.94-1.51c.76-.94,3.22-1.7,4.73-2.07.56-.2,1.32-.38,1.7-.58,3.4-1.32,5.85-2.84,7.56-4.91a10.92,10.92,0,0,0,.94,2.27,5.61,5.61,0,0,0,3.41,1.89l4.34.37h.57a4.78,4.78,0,0,0,4.9-4.53l.38-4.34a4.14,4.14,0,0,0-1.13-3.6c-.38-.38-.56-.75-.94-.94a19.46,19.46,0,0,0,6.05-5.29,10.72,10.72,0,0,0,1.13-1.52c1-1.32,2.26-3.21,3.4-3.77l1.7-.57c1.51-.38,4.15-.94,4.91-3.59s-.94-4.54-1.88-5.67c-.38-.56-.95-.94-1.14-1.51-.57-1.13-.57-3.4-.57-5.11V483c-.18-4-1.13-6.8-2.46-8.7H437a4.91,4.91,0,0,0,4.54-3l1.7-4a4.46,4.46,0,0,0,0-3.78,4.88,4.88,0,0,0-2.64-2.83l-4-1.7a6.77,6.77,0,0,0-2.08-.37,5.74,5.74,0,0,0-3,.93,18.63,18.63,0,0,0-3-7.37c-.38-.56-.76-.93-1.14-1.51-.93-1.32-2.45-3.21-2.45-4.34v-1.89c.19-1.51.38-4.16-1.7-5.86l-.38.37.38-.37a4.57,4.57,0,0,0-2.65-.94,7.1,7.1,0,0,0-3.39.94,6,6,0,0,1-1.71.57h-.56a14.65,14.65,0,0,1-4.54-1.13c-.56-.2-1.13-.38-1.7-.57a22,22,0,0,0-5.67-1,23.39,23.39,0,0,0-3.4.38,5.19,5.19,0,0,0,.56-2.46,4.25,4.25,0,0,0-1.69-3.39l-3.22-3a5.41,5.41,0,0,0-3.4-1.33,5.06,5.06,0,0,0-3.78,1.7l-3,3.21a4.78,4.78,0,0,0-.93,4.91,11.64,11.64,0,0,0-2.46-.19,21.94,21.94,0,0,0-5.67.95l-1.7.56a14.25,14.25,0,0,1-4.53,1.13h-.57l-1.7-.55a9,9,0,0,0-3.41-.95,4.44,4.44,0,0,0-2.64.95c-2.27,1.69-1.89,4.15-1.89,5.85,0,.56.19,1.32.19,1.89a12.76,12.76,0,0,1-2.46,4.35c-.38.56-.75.94-1.12,1.51a17,17,0,0,0-3.22,8.5,4.56,4.56,0,0,0-3.41-1.33A3.87,3.87,0,0,0,347,460l-3.77,2.27a5.19,5.19,0,0,0-2.26,3,6.8,6.8,0,0,0,.56,4"/><path class="cls-3" d="M392.21,459.58a10.35,10.35,0,0,1,10,8.12h1.32a10.15,10.15,0,0,1,9.63,7,10.33,10.33,0,0,1-4.72,12.09,11,11,0,0,1,1,6,10.29,10.29,0,0,1-17,5.86,10.5,10.5,0,0,1-7,2.84,11.94,11.94,0,0,1-6-1.89,10,10,0,0,1-3.22-12.47,10.21,10.21,0,0,1-4.73-12.1,10.17,10.17,0,0,1,9.65-7h1.12a10.72,10.72,0,0,1,10-8.5"/><path class="cls-2" d="M393.54,459.58a10.24,10.24,0,0,1,8.69,8.12h1.31a10.22,10.22,0,0,1,9.27,5.86,46.9,46.9,0,0,0,8.31-3.4c8.13-4,8.69-9.26,4.35-15.69-1.32-1.88-4-4.72-4.35-7.74-.19-2.09.57-4.35-.19-4.91s-2.65.94-4.72,1.32c-2.84.56-6.43-1.14-8.69-1.7-7.37-2.08-12.1.18-13.42,9.07a58.73,58.73,0,0,0-.56,9.07m-2.09-18.71a1.18,1.18,0,0,0,1.52,0l2.83-4.73a1.14,1.14,0,0,0,0-1.51l-3.21-3a1.14,1.14,0,0,0-1.51,0l-3,3.22a1.14,1.14,0,0,0,0,1.51Zm-27.59,29.29a35.13,35.13,0,0,0,8.13,3.21,10.33,10.33,0,0,1,9.07-5.67h1.13a10.34,10.34,0,0,1,9.26-8.5,54.78,54.78,0,0,0-.56-8.88c-1.33-8.88-6.24-11.15-13.42-9.08-2.27.58-5.86,2.27-8.69,1.71-2.08-.38-4-1.89-4.73-1.33s0,2.84-.19,4.92c-.37,2.83-3,5.85-4.34,7.75-4.16,6.61-3.59,11.9,4.34,15.87M345,467.32l2.26,3.78a1,1,0,0,0,1.52.38l5.1-1.89a1,1,0,0,0,.37-1.51l-3.58-4.16a1,1,0,0,0-1.51-.37l-3.78,2.27a1,1,0,0,0-.38,1.5m86.36,1.89,5.28,1.33a1.28,1.28,0,0,0,1.52-.57l1.7-4a1.27,1.27,0,0,0-.57-1.51l-4-1.7a1.27,1.27,0,0,0-1.52.57l-3,4.53c-.38.38,0,1.14.57,1.32m-61.79,45.17a1.44,1.44,0,0,0-1.33-1l-4.9,2.27a1.41,1.41,0,0,0-1,1.33l1,4.34a1.4,1.4,0,0,0,1.31.94l4.34-.94a1.42,1.42,0,0,0,1-1.33Zm65.38-31c-.38-7.56-4-11.54-12.66-10a61.18,61.18,0,0,0-8.7,2.08,9.9,9.9,0,0,1-4.91,11.15,11.13,11.13,0,0,1,1,6,11,11,0,0,1-3,5.86,55.09,55.09,0,0,0,5.48,6.41c6.23,6.44,11.53,5.3,16.26-.55,1.31-1.71,3.4-5.3,6-6.44,2.09-.94,4.35-.75,4.54-1.69.37-.95-1.7-2.27-2.83-4-1.52-2.65-1.14-6.61-1.14-8.88M376.33,487a9.29,9.29,0,0,1-4.15-4.34,9.55,9.55,0,0,1-.76-7.18,52.27,52.27,0,0,0-8.31-2.08c-8.89-1.52-12.47,2.46-12.66,10,0,2.27.38,6.23-1.14,8.68-1.12,1.9-3,3.22-2.83,4,.37.94,2.65.75,4.54,1.7,2.65,1.13,4.54,4.72,6,6.42,4.73,6.05,10,7,16.25.57a49.35,49.35,0,0,0,5.48-6.23A9.61,9.61,0,0,1,376.33,487m46.11,27.79-5.29-1.52a1.43,1.43,0,0,0-1.32,1l.38,5.47a1.43,1.43,0,0,0,.94,1.33l4.35.38a1.05,1.05,0,0,0,1.13-1l.38-4.34a.83.83,0,0,0-.57-1.32M409.22,507c4.15,7.93,1.51,12.65-5.68,15.3-2.07.76-6,1.52-7.92,3.79-1.52,1.69-2.08,4-3,4s-1.51-2.27-3-4c-1.89-2.08-5.85-3-7.93-3.79-7.18-2.65-9.83-7.18-5.67-15.3a65.54,65.54,0,0,1,4.16-7,10.19,10.19,0,0,0,5.29,1.51,9.71,9.71,0,0,0,7-2.84,10.22,10.22,0,0,0,6.8,2.64,10.07,10.07,0,0,0,5.29-1.51,29,29,0,0,1,4.73,7.19"/><path class="cls-2" d="M379.17,484.14c.57.19,1.14.19,1.7.38a1,1,0,0,1,.76.37,1.16,1.16,0,0,1-.18,1.52l-1.14,1.13a6.35,6.35,0,1,0,10.2,7.56,3.78,3.78,0,0,0,.76-1.51c.19-.38.38-.57.74-.57a1,1,0,0,1,1.34.57,4.48,4.48,0,0,0,.76,1.32,6.35,6.35,0,1,0,10.2-7.56c-.38-.37-.75-.94-1.13-1.32a1.36,1.36,0,0,1-.38-.94,1.05,1.05,0,0,1,.93-1.13,4.65,4.65,0,0,0,1.52-.38,6.34,6.34,0,1,0-3.78-12.1,3.78,3.78,0,0,0-1.51.76,1.49,1.49,0,0,1-.95.18,1.06,1.06,0,0,1-.75-1.31,4.18,4.18,0,0,0,.19-1.52,6.43,6.43,0,0,0-12.85,0,5.44,5.44,0,0,0,.18,1.7,1.79,1.79,0,0,1-.18.95,1.2,1.2,0,0,1-1.51.38,3.86,3.86,0,0,0-1.33-.58,6.15,6.15,0,0,0-7.93,4.17,6.56,6.56,0,0,0,4.34,7.93"/><path class="cls-3" d="M386.92,481.5a4.91,4.91,0,1,1,4.91,4.91,4.89,4.89,0,0,1-4.91-4.91"/><path class="cls-3" d="M647.12,469.22,644.85,473a5,5,0,0,1-4.34,2.46h-.2a20,20,0,0,1,1.9,7.75v1.89c0,1.51,0,4,.56,5.1.2.38.76.94,1.14,1.52,1.13,1.13,2.83,3,1.89,5.66s-3.41,3.21-4.91,3.4c-.58.19-1.34.19-1.7.57-1.14.56-2.45,2.45-3.41,3.77a10.72,10.72,0,0,1-1.13,1.52c-2.27,2.84-4.54,4.72-7.18,5.67a4.84,4.84,0,0,1,2.46,5.48l-.95,4.34a5.05,5.05,0,0,1-4.91,4,2.53,2.53,0,0,1-1.14-.18l-4.35-.95a5,5,0,0,1-3.77-3.4,20,20,0,0,1-6.8,4.15l-1.7.58c-1.52.55-3.78,1.13-4.73,2.07a4.21,4.21,0,0,0-.94,1.51c-.76,1.33-2.08,3.59-4.92,3.59s-4.15-2.26-4.91-3.59a11.43,11.43,0,0,0-.94-1.51c-.76-.94-3.21-1.7-4.73-2.07-.56-.2-1.32-.38-1.7-.58-3.4-1.32-5.85-2.84-7.56-4.91a10.92,10.92,0,0,1-.94,2.27,5.61,5.61,0,0,1-3.4,1.89l-4.35.37h-.57a4.79,4.79,0,0,1-4.91-4.53l-.37-4.34a4.14,4.14,0,0,1,1.13-3.6c.38-.38.56-.75.94-.94a19.35,19.35,0,0,1-6-5.29,10,10,0,0,1-1.13-1.52c-1-1.32-2.26-3.21-3.4-3.77l-1.7-.57c-1.51-.38-4.15-.94-4.91-3.59s.94-4.54,1.88-5.67c.38-.56.95-.94,1.14-1.51.56-1.13.56-3.4.56-5.11V483c.19-4,1.14-6.8,2.46-8.7h-.56a4.9,4.9,0,0,1-4.54-3l-1.7-4a4.46,4.46,0,0,1,0-3.78,4.88,4.88,0,0,1,2.64-2.83l4-1.7a6.65,6.65,0,0,1,2.07-.37,5.74,5.74,0,0,1,3,.93,18.63,18.63,0,0,1,3-7.37c.38-.56.76-.93,1.14-1.51.93-1.32,2.45-3.21,2.45-4.34v-1.89c-.19-1.51-.38-4.16,1.7-5.86l.38.37-.38-.37a4.54,4.54,0,0,1,2.65-.94,7.17,7.17,0,0,1,3.4.94,5.88,5.88,0,0,0,1.7.57h.56a14.65,14.65,0,0,0,4.54-1.13l1.7-.57a22,22,0,0,1,5.67-1,23.24,23.24,0,0,1,3.4.38,5.19,5.19,0,0,1-.56-2.46,4.25,4.25,0,0,1,1.69-3.39l3.22-3a5.43,5.43,0,0,1,3.4-1.33,5.06,5.06,0,0,1,3.78,1.7l3,3.21a4.78,4.78,0,0,1,.93,4.91,11.64,11.64,0,0,1,2.46-.19,22,22,0,0,1,5.67.95l1.7.56A14.18,14.18,0,0,0,619,439h.57l1.7-.55a9,9,0,0,1,3.41-.95,4.44,4.44,0,0,1,2.64.95c2.27,1.69,1.89,4.15,1.89,5.85,0,.56-.19,1.32-.19,1.89a12.76,12.76,0,0,0,2.46,4.35c.38.56.75.94,1.12,1.51a16.87,16.87,0,0,1,3.22,8.5,4.57,4.57,0,0,1,3.41-1.33,3.87,3.87,0,0,1,2.46.76l3.77,2.27a5.23,5.23,0,0,1,2.26,3,6.8,6.8,0,0,1-.56,4"/><path class="cls-3" d="M596.48,459.58a10.36,10.36,0,0,0-10,8.12h-1.32a10.15,10.15,0,0,0-9.63,7,10.33,10.33,0,0,0,4.72,12.09,11,11,0,0,0-.94,6,10.29,10.29,0,0,0,17,5.86,10.52,10.52,0,0,0,7,2.84,11.94,11.94,0,0,0,6-1.89,10,10,0,0,0,3.22-12.47,10.21,10.21,0,0,0,4.73-12.1,10.18,10.18,0,0,0-9.64-7h-1.14a10.69,10.69,0,0,0-10-8.5"/><path class="cls-2" d="M595.15,459.58a58.73,58.73,0,0,0-.56-9.07c-1.32-8.89-6.24-11.15-13.42-9.07-2.26.56-5.85,2.26-8.69,1.7-2.07-.38-4-1.9-4.72-1.32s0,2.82-.19,4.91c-.38,2.83-3,5.86-4.35,7.74-4.15,6.24-3.59,11.53,4.35,15.69a46.9,46.9,0,0,0,8.31,3.4,10.22,10.22,0,0,1,9.27-5.86h1.31a10.25,10.25,0,0,1,8.69-8.12m5.29-23.06a1,1,0,0,0,0-1.51l-3-3.21a1,1,0,0,0-1.51,0l-3.22,3a1,1,0,0,0,0,1.51l2.84,4.72a1,1,0,0,0,1.51,0Zm24.39,33.64c8.12-4,8.68-9.26,4.34-15.69-1.33-1.88-4-4.72-4.34-7.74-.19-2.09.55-4.35-.19-4.91s-2.65.94-4.73,1.32c-2.83.56-6.43-1.14-8.69-1.7-7.37-2.08-12.09.18-13.42,9.07a38.64,38.64,0,0,0-.56,8.87,9.43,9.43,0,0,1,6.42,3,10.22,10.22,0,0,1,2.83,5.48h1.14a10.1,10.1,0,0,1,9.07,5.67,44.93,44.93,0,0,0,8.13-3.4m18.89-2.84a1,1,0,0,0-.38-1.5l-3.78-2.27a1,1,0,0,0-1.51.37l-3.58,4.16a1,1,0,0,0,.37,1.51l5.1,1.89a1,1,0,0,0,1.52-.38l2.26-3.78m-86.36,1.89a1.18,1.18,0,0,0,.57-1.51l-3-4.53a1.2,1.2,0,0,0-1.52-.57l-4,1.7a1.2,1.2,0,0,0-.57,1.52l1.7,4a1.19,1.19,0,0,0,1.52.57l5.28-1.14m61.41,50.64c-.18.57.2,1.14,1,1.33l4.34.94c.57.19,1.13-.19,1.31-.94l1-4.35c.18-.56-.2-1.13-1-1.32l-5.09-2.08c-.56-.19-1.14.19-1.32,1Zm-65-36.46c0,2.27.38,6.23-1.13,8.68-1.14,1.9-3,3.22-2.84,4,.38.94,2.65.75,4.54,1.7,2.64,1.13,4.54,4.72,6,6.42,4.72,6.05,10,7,16.25.57a42.41,42.41,0,0,0,5.48-6.43,9.77,9.77,0,0,1-3-5.86,9.54,9.54,0,0,1,.95-6,10.26,10.26,0,0,1-4.91-11.15,33.26,33.26,0,0,0-8.7-2.08c-8.88-1.33-12.46,2.65-12.66,10.21M612.36,487a10.15,10.15,0,0,1-2.27,11.72,38.32,38.32,0,0,0,5.47,6.23c6.24,6.44,11.54,5.3,16.26-.55,1.31-1.71,3.4-5.3,6-6.44,2.08-.94,4.35-.75,4.53-1.69.38-.95-1.69-2.27-2.83-4-1.51-2.46-.94-6.43-1.13-8.7-.38-7.55-4-11.52-12.67-10a40,40,0,0,0-8.3,2.08,10.49,10.49,0,0,1-.76,7.18,10.25,10.25,0,0,1-4.34,4.15m-46.12,27.79a.94.94,0,0,0-.94,1.13l.38,4.34a.94.94,0,0,0,1.13.95l4.35-.38a1,1,0,0,0,.94-1.31l.38-5.49a1,1,0,0,0-1.32-1l-4.92,1.71M579.47,507a47.51,47.51,0,0,1,4.35-7.19,10.63,10.63,0,0,0,5.29,1.51,9.55,9.55,0,0,0,6.8-2.64,10.56,10.56,0,0,0,7,2.84,10.73,10.73,0,0,0,5.29-1.51,43.33,43.33,0,0,1,4.17,7c4.15,7.93,1.5,12.65-5.68,15.3-2.07.76-6,1.52-7.93,3.79-1.51,1.69-2.08,4-3,4s-1.51-2.27-3-4c-1.88-2.08-5.85-3-7.92-3.79-6.81-2.82-9.45-7.37-5.3-15.3"/><path class="cls-2" d="M609.52,484.14c-.57.19-1.14.19-1.7.38a1,1,0,0,0-.76.37,1.15,1.15,0,0,0,.19,1.52c.38.37.76.75,1.13,1.13a6.35,6.35,0,1,1-10.2,7.56,3.78,3.78,0,0,1-.76-1.51c-.19-.38-.38-.57-.74-.57a1,1,0,0,0-1.34.57,4.48,4.48,0,0,1-.76,1.32,6.35,6.35,0,1,1-10.2-7.56c.38-.37.75-.94,1.13-1.32a1.36,1.36,0,0,0,.38-.94A1.05,1.05,0,0,0,585,484a4.65,4.65,0,0,1-1.52-.38,6.34,6.34,0,0,1,3.78-12.1,3.78,3.78,0,0,1,1.51.76,1.5,1.5,0,0,0,.95.18,1.06,1.06,0,0,0,.75-1.31,4.18,4.18,0,0,1-.19-1.52,6.43,6.43,0,0,1,12.85,0,5.44,5.44,0,0,1-.18,1.7,1.79,1.79,0,0,0,.18.95,1.2,1.2,0,0,0,1.51.38,3.86,3.86,0,0,1,1.33-.58,6.15,6.15,0,0,1,7.93,4.17,6.74,6.74,0,0,1-4.34,7.93"/><path class="cls-3" d="M601.58,481.5a4.91,4.91,0,1,0-4.91,4.91,4.77,4.77,0,0,0,4.91-4.91"/><path class="cls-3" d="M646.93,581.45c-9.26,2.65-20.41,4.35-36.46,4.35a139.12,139.12,0,0,1-33.27-3.59,124.84,124.84,0,0,1-17.38-5.67c-8.12-3.21-16.06-6.8-26.27-9.64s-22.48-4.72-39.11-4.72c-14.93,0-26.27,1.51-35.72,3.78a121,121,0,0,0-18.7,6.23c-8.51,3.41-15.88,6.81-25.13,9.45S394.48,586,378.41,586a139,139,0,0,1-33.25-3.59,152.26,152.26,0,0,1-16.44-5.29c1.88,4.34,4,8.5,6,12.85,1.51.38,3,.94,4.54,1.32,10.2,2.84,22.48,4.73,39.1,4.73,14.94,0,26.28-1.51,35.72-3.78A121.49,121.49,0,0,0,432.84,586c8.49-3.4,15.87-6.81,25.12-9.26,9.27-2.65,20.42-4.34,36.48-4.34A138.52,138.52,0,0,1,527.7,576a124.43,124.43,0,0,1,17.38,5.66c8.12,3.22,16.07,6.81,26.27,9.64S593.84,596,610.47,596c14.91,0,26.26-1.51,35.71-3.78,2.83-.75,5.28-1.51,7.93-2.27,2.08-4.35,4.17-8.51,6-12.85-4.34,1.51-8.5,3-13.23,4.34"/><path class="cls-3" d="M610.46,565.77a138.94,138.94,0,0,1-33.25-3.59,125,125,0,0,1-17.39-5.67c-8.12-3.21-16.06-6.79-26.27-9.63s-22.48-4.73-39.11-4.73c-14.93,0-26.26,1.51-35.72,3.78a121.35,121.35,0,0,0-18.7,6.24c-8.5,3.4-15.87,6.8-25.13,9.26-9.26,2.65-20.41,4.34-36.47,4.34a139,139,0,0,1-33.26-3.59,124.41,124.41,0,0,1-17.38-5.67c-2.84-1.13-5.67-2.26-8.7-3.59,1.52,4.17,3.21,8.51,4.91,12.85a130.76,130.76,0,0,0,15.32,5.3c10.19,2.83,22.48,4.73,39.11,4.73,14.92,0,26.26-1.52,35.71-3.8a118,118,0,0,0,18.71-6.23c8.5-3.4,15.87-6.8,25.13-9.26,9.25-2.64,20.41-4.34,36.47-4.34a139.56,139.56,0,0,1,33.26,3.58,126.16,126.16,0,0,1,17.38,5.68c8.13,3.2,16.06,6.8,26.26,9.64s22.49,4.73,39.12,4.73c14.93,0,26.27-1.52,35.72-3.8a163.54,163.54,0,0,0,18.7-6c1.7-4.34,3.41-8.69,4.92-12.85-7.56,3-14.36,6-22.87,8.32-9.45,2.45-20.59,4.34-36.47,4.34"/><path class="cls-3" d="M315.87,543.1a220.27,220.27,0,0,0,23.43,8.69c10.2,2.84,22.48,4.73,39.11,4.73,14.94,0,26.28-1.52,35.72-3.79a120,120,0,0,0,18.7-6.23c8.51-3.4,15.88-6.8,25.14-9.26,9.26-2.65,20.41-4.34,36.47-4.34a139.62,139.62,0,0,1,33.26,3.58,125.56,125.56,0,0,1,17.37,5.68c8.13,3.21,16.08,6.79,26.28,9.63s22.49,4.73,39.12,4.73c14.92,0,26.26-1.52,35.71-3.79a120.46,120.46,0,0,0,18.71-6.23c2.83-1.13,5.47-2.27,8.12-3.22,1.32-4.15,2.46-8.11,3.6-12.28l-4.55,1.71c-8.5,3.39-15.87,6.8-25.13,9.25-9.26,2.65-20.4,4.35-36.46,4.35a138.91,138.91,0,0,1-33.26-3.59,125.89,125.89,0,0,1-17.39-5.67c-8.12-3.22-16.06-6.8-26.27-9.63s-22.48-4.73-39.11-4.73c-14.93,0-26.27,1.52-35.71,3.78A119.71,119.71,0,0,0,440,532.71c-8.5,3.39-15.87,6.8-25.13,9.25-9.26,2.65-20.41,4.35-36.48,4.35a139,139,0,0,1-33.25-3.59,125.74,125.74,0,0,1-17.38-5.67c-5.1-2.08-10-4.15-15.69-6.23,1.14,4,2.26,8.12,3.78,12.28"/><rect class="cls-3" x="300.38" y="413.47" width="387.94" height="5.1"/></svg>