<?xml version="1.0" encoding="utf-8"?>
<!-- Generator: Adobe Illustrator 28.2.0, SVG Export Plug-In . SVG Version: 6.00 Build 0)  -->
<svg version="1.1" id="Layer_1" xmlns="http://www.w3.org/2000/svg" xmlns:xlink="http://www.w3.org/1999/xlink" x="0px" y="0px"
	 viewBox="0 0 360 266" style="enable-background:new 0 0 360 266;" xml:space="preserve">
<style type="text/css">
	.st0{fill:#005ABA;}
</style>
<g>
	<path class="st0" d="M268.9,78.6c0.8-0.1,1.5-0.3,2.3-0.4c1.6-0.4,3.2-1,4.6-1.8c6.1-3.4,10.2-9.9,10.2-17.3
		c0-12.2-10.4-19.8-21.3-19.8H219V19.7c0-3.2,1.3-5,4.5-5h14.3V3.2h-60v11.4h14.4c3.3,0,4.5,1.8,4.5,5v19.7h-74.6v11.4h13.6
		c3.2,0,5.2,1.8,5.2,5.1v18.1c-28-0.1-32.3-12.5-32.3-24.2V19.5c0-3.2,1.3-5,4.5-5h14.4V3.2h-75v11.4h14.4c3.3,0,4.5,1.8,4.5,5v29.7
		c0,25.2,26.6,35.8,69.5,35.8v19.7c0,3.3-2,5.1-5.2,5.1h-13.6v11.3h142.6c11.6,0,22.6-8.2,22.6-21.1c0-8.2-4.7-15.3-11.5-18.8
		c-1.4-0.7-3-1.3-4.6-1.7c-0.7-0.2-1.5-0.3-2.3-0.4C268.5,79.1,268.5,78.7,268.9,78.6L268.9,78.6z M219,55.4v-4.8h25.4
		c6.4,0,11.5,5.2,11.5,11.5c0,6.4-5.2,11.5-11.5,11.5h-34.9C216.1,68.7,219,61.4,219,55.4L219,55.4z M177.8,50.6h18.9v6.2
		c0,7.1-4.5,17-18.9,17V50.6L177.8,50.6z M243.5,109.8h-65.7V85h65.7c6.8,0,12.4,5.5,12.4,12.4S250.4,109.8,243.5,109.8L243.5,109.8
		z"/>
	<path class="st0" d="M338.5,156.2v6.8c0.6,0.2,2.1,0.4,3.6,0.6l-3.5,10c-0.8,2.1-1.8,4.9-2.3,7h-0.1c-0.4-2-1.3-4.9-2.1-7l-3.6-9.9
		c1.3-0.1,2.6-0.4,3.2-0.6v-6.9H316v6.8c0.7,0.2,2,0.4,3.5,0.6l10.6,27.2l-0.9,2.4c-1.7,4.5-3.5,5.6-10.1,5.4l3.4,8.7
		c9.8,0.1,13.5-4.6,16.9-13.2l12.1-30.4c1.6-0.1,3-0.4,3.8-0.6v-6.9L338.5,156.2L338.5,156.2z"/>
	<path class="st0" d="M9.4,172.4v-21.2c-1.8,0-3.7-0.3-4.7-0.6v-6.7h21v6.7c-1,0.3-3.2,0.6-5,0.6v21c0,7.5,2.7,10.8,9.6,10.8
		c6.5,0,9.1-3.8,9.1-10.3v-21.5c-1.8,0-4-0.3-4.9-0.6v-6.7h19.2v6.7c-1,0.3-3,0.6-4.6,0.6v20.1c0,13.2-6.2,20.3-19.5,20.3
		C15.8,191.6,9.4,184.8,9.4,172.4L9.4,172.4z"/>
	<path class="st0" d="M54,184c1.1-0.3,3.4-0.7,5-0.7v-19.9c-1.9-0.2-3.7-0.3-5-0.3v-6.8c2.6-0.3,8.6-0.6,15.7-0.6l-0.3,5h0.1
		c2.1-2.8,5.4-5.4,10.8-5.4c7.6,0,10.4,4.9,10.4,11.3v16.6c1.5,0,3.6,0.4,4.6,0.7v6.7H80v-22c0-3.2-1.2-4.6-4.2-4.6
		c-2.8,0-5.1,2.2-6.2,3.7v15.7c1.7,0.1,3.5,0.4,4.3,0.7v6.7h-20L54,184L54,184z"/>
	<path class="st0" d="M99.9,184c1.1-0.3,3.4-0.7,5-0.7v-19.9c-1.9-0.2-3.7-0.3-5-0.3v-6.8c2.6-0.3,8.7-0.6,16.2-0.6l-0.4,5.7v21.9
		c1.5,0,3.7,0.4,4.6,0.7v6.7H99.9V184L99.9,184z M104,145.9c0-3.3,2.6-6.1,6.3-6.1c3.7,0,6.3,2.7,6.3,6.1c0,3.3-2.6,6.2-6.3,6.2
		C106.6,152.1,104,149.2,104,145.9L104,145.9z"/>
	<path class="st0" d="M124.2,163.6c-1.5-0.2-2.8-0.4-3.5-0.6v-6.8h17.7v6.8c-0.6,0.2-2,0.4-3.2,0.6l3.6,10c0.8,2.1,1.8,4.9,2.1,6.9
		h0.1c0.4-2,1.4-4.8,2.2-6.9l3.6-10c-1.5-0.1-3-0.4-3.6-0.6v-6.8H160v6.8c-0.8,0.2-2.2,0.5-3.8,0.6l-10.8,27.1h-10.7L124.2,163.6
		L124.2,163.6z"/>
	<path class="st0" d="M161.8,174c0-11.8,7.2-18.6,18.1-18.6c10.1,0,15,6.5,15,16.1c0,1.1-0.1,3.4-0.2,4.6h-21.5
		c0.3,4.8,3.2,7.9,8.4,7.9c4.4,0,6.9-1.2,8.7-2.2l3.2,6.4c-2.5,1.5-6.4,3.4-13.4,3.4C168.5,191.6,161.8,185.1,161.8,174L161.8,174z
		 M184.4,169.5c-0.1-4.1-1.5-7.2-5.1-7.2c-3.9,0-5.9,2.7-6.3,7.2H184.4L184.4,169.5z"/>
	<path class="st0" d="M199.5,184c1.1-0.3,3.4-0.7,5-0.7v-19.9c-1.9-0.2-3.7-0.3-5-0.3v-6.8c2.6-0.3,8.7-0.6,15.8-0.6l-0.4,5.8h0.1
		c1.4-2.8,4.6-6.3,8.7-6.3c2.7,0,4.2,0.6,5,1.1l-2.5,9.2c-0.6-0.4-1.9-1-3.9-1c-3.8,0-6.3,2.8-7.2,4.4v14.3c1.7,0,4.6,0.4,5.6,0.7
		v6.7h-21.2L199.5,184L199.5,184z"/>
	<path class="st0" d="M232.3,189v-9.4h7.4c0.1,0.2,0.4,3.2,0.4,3.7c1.8,0.4,3.7,0.8,5.7,0.8c3.7,0,5.5-1,5.5-2.9
		c0-2.4-3.4-3-7.3-3.9c-5.3-1.3-11.4-3.2-11.4-11.2c0-7,5.2-10.7,14.4-10.7c6.1,0,11.3,1.3,13,2.3v9.3h-7.5
		c-0.1-0.7-0.3-2.3-0.4-3.6c-1.5-0.4-3.2-0.6-4.8-0.6c-3.5,0-5.2,0.8-5.2,2.8c0,2.4,3.8,2.9,8,3.9c5.2,1.3,11,3.2,11,10.6
		c0,7.5-6.1,11.5-15.3,11.5C240,191.6,234.6,190.4,232.3,189L232.3,189z"/>
	<path class="st0" d="M266.4,184c1.1-0.3,3.4-0.7,5-0.7v-19.9c-1.9-0.2-3.7-0.3-5-0.3v-6.8c2.6-0.3,8.7-0.6,16.2-0.6l-0.4,5.6v21.9
		c1.5,0,3.7,0.4,4.6,0.7v6.7h-20.4L266.4,184L266.4,184z M270.4,145.9c0-3.3,2.6-6.1,6.3-6.1c3.7,0,6.3,2.7,6.3,6.1
		c0,3.3-2.6,6.2-6.3,6.2C273,152.1,270.4,149.2,270.4,145.9L270.4,145.9z"/>
	<path class="st0" d="M310.9,182.2c-0.8,0.4-2.2,0.9-3.8,0.9c-2.4,0-3.5-1.3-3.5-4.7v-14.3h8.4v-7.9h-8.4v-9.9H293v9.9h-5.2v7.9h5.2
		v16.2c0,6.8,2.8,11.3,11.7,11.3c4.4,0,7.5-1.1,9.1-2L310.9,182.2L310.9,182.2z"/>
	<path class="st0" d="M24.1,252.9c0-8.7,8.4-12.1,18.4-12.1h1.1v-2.1c0-2.7-1.3-4-5.3-4c-3.9,0-7.2,1.8-8.9,3.2l-4.3-6.2
		c2.5-2.3,7.5-5.1,14.4-5.1c10.1,0,14.7,3.7,14.7,13.2v11.7c0,1.3,0,2.4,0.1,3.4c1.8,0.1,3.3,0.2,4.2,0.2v6.8
		c-2.4,0.2-7.4,0.4-13.8,0.4c-0.3-0.8-0.5-2.7-0.6-4H44c-1.5,2-4.8,4.4-9.4,4.4C28.9,262.7,24.1,259.2,24.1,252.9L24.1,252.9z
		 M43.6,252.9v-6.1h-1.1c-5.1,0-8.3,1.4-8.3,5c0,2.5,1.8,3.5,3.9,3.5C40.8,255.3,42.5,254.2,43.6,252.9L43.6,252.9z"/>
	<path class="st0" d="M64.5,251.5v-16.2h-5.2v-7.9h5.2v-9.9h10.6v9.9h8.4v7.9h-8.4v14.3c0,3.4,1.1,4.7,3.5,4.7c2,0,3.7-0.8,4.4-1.2
		l2.3,7.7c-1.5,0.8-4.6,2-9.1,2C67.3,262.7,64.5,258.3,64.5,251.5L64.5,251.5z"/>
	<path class="st0" d="M103.5,255.2c1.2-0.4,3.9-0.7,5.6-0.7v-32.1c-1.7,0-4.5-0.4-5.6-0.7V215h23.1c8.7,0,16.5,2.7,16.5,11.6
		c0,6.5-3.7,9.6-8.8,10.9v0.1c5.5,0.8,10.7,4.3,10.7,11.2c0,9.5-7.9,13-18.6,13h-22.9V255.2L103.5,255.2z M120.3,234.3h4.7
		c4.8,0,6.8-1.9,6.8-5.8c0-3.7-2.2-5.6-6.5-5.6h-5V234.3L120.3,234.3z M120.3,253.9h5.5c5.1,0,7.6-1.8,7.6-6.1
		c0-4.1-2.3-6.1-7.2-6.1h-5.9L120.3,253.9L120.3,253.9z"/>
	<path class="st0" d="M151.7,251.5v-16.9c-1.8-0.2-3.1-0.3-4.4-0.3v-6.8c2.6-0.3,8.2-0.6,15.5-0.6l-0.4,5.6v16.9
		c0,3.2,1.1,4.6,4.1,4.6c2.8,0,5.1-2.2,6.2-3.7v-15.9c-1.9-0.2-3.4-0.3-4.7-0.3v-6.8c2.6-0.3,8.6-0.6,15.8-0.6l-0.4,5.6v19
		c0,1.2,0,2.3,0.1,3.2c1.8,0.1,3.5,0.2,4.5,0.2v6.8c-2.4,0.2-7.5,0.4-14.1,0.4c-0.4-1.1-0.7-3.9-0.8-5.2H173
		c-2.2,2.8-5.3,5.6-10.9,5.6C154.5,262.7,151.7,257.9,151.7,251.5L151.7,251.5z"/>
	<path class="st0" d="M242.1,252.9c0-8.7,8.4-12.1,18.4-12.1h1.1v-2.1c0-2.7-1.3-4-5.3-4c-3.9,0-7.2,1.8-8.9,3.2l-4.3-6.2
		c2.5-2.3,7.5-5.1,14.4-5.1c10.1,0,14.7,3.7,14.7,13.2v11.7c0,1.3,0,2.4,0.1,3.4c1.8,0.1,3.2,0.2,3.2,0.2v6.8
		c-2.4,0.2-6.4,0.4-12.8,0.4c-0.3-0.8-0.5-2.7-0.6-4H262c-1.5,2-4.8,4.4-9.4,4.4C246.9,262.7,242.1,259.2,242.1,252.9L242.1,252.9z
		 M261.7,252.9v-6.1h-1.1c-5.1,0-8.3,1.4-8.3,5c0,2.5,1.8,3.5,3.9,3.5C258.9,255.3,260.5,254.2,261.7,252.9L261.7,252.9z"/>
	<path class="st0" d="M279.4,255.2c1.1-0.3,2.9-0.7,4.4-0.7v-35.9c-1.9-0.2-3.7-0.4-4.9-0.4v-6.7c2.6-0.3,8.7-0.6,16-0.6l-0.4,5.6
		v37.9c1.5,0,3.7,0.4,4.6,0.7v6.7h-19.7V255.2L279.4,255.2z"/>
	<path class="st0" d="M300.5,244.8c0-9.1,5.6-18.3,17.7-18.3s17.7,8.6,17.7,17.9c0,8.9-5.6,18.3-17.7,18.3
		C306,262.7,300.5,254.1,300.5,244.8L300.5,244.8z M324.5,244.8c0-6.1-1.6-10.5-6.5-10.5c-4.8,0-6.2,4.1-6.2,10.1
		c0,6.1,1.7,10.5,6.5,10.5C323.2,254.9,324.5,250.9,324.5,244.8L324.5,244.8z"/>
	<path class="st0" d="M236.5,218.8c2.6,0,4.2,0.7,4.9,1l2.4-7.6c-1-0.6-3.7-1.8-9.2-1.8c-8.9,0-13.8,5.7-13.8,14v3h-12.7v-2.5
		c0-4,1.5-6.1,4.8-6.1c1.2,0,2.2,0.2,2.9,0.4c0.6-2.8,1.8-5.3,3.5-7.3l0,0c-1.3-0.7-4.3-1.5-8.4-1.5c-8.6,0-13.4,5.7-13.4,14v3h-5
		v7.9h5v19.2c-1.6,0-3.9,0.4-5,0.7v6.7H213v-6.7c-0.9-0.3-3.3-0.7-4.8-0.7v-19.8h12.5v19.8c-1.7,0-3.5,0.4-4.5,0.7v6.7h20l1-6.7
		c-0.9-0.3-4.4-0.7-5.9-0.7v-19.2h8.1v-7.9h-8.1v-2.5C231.4,220.9,232.8,218.8,236.5,218.8L236.5,218.8z"/>
	<path class="st0" d="M336,219.9c0-1.3,0.5-2.5,1.4-3.4s2.1-1.4,3.4-1.4s2.5,0.5,3.4,1.4s1.4,2.1,1.4,3.4c0,1.3-0.5,2.5-1.4,3.4
		s-2.1,1.4-3.4,1.4s-2.5-0.5-3.4-1.4S336,221.2,336,219.9L336,219.9z M337,219.9c0,1,0.4,1.9,1.1,2.7c0.7,0.7,1.6,1.1,2.6,1.1
		s1.9-0.4,2.6-1.1c0.7-0.7,1.1-1.6,1.1-2.7c0-1-0.4-1.9-1.1-2.7c-0.7-0.7-1.6-1.1-2.6-1.1s-1.9,0.4-2.6,1.1
		C337.4,217.9,337,218.8,337,219.9L337,219.9z M341.4,222.2l-1-1.5h-0.1v1.5H339v-4.7h2c1,0,1.6,0.7,1.6,1.6c0,0.7-0.4,1.3-1.1,1.5
		l1.2,1.6L341.4,222.2L341.4,222.2z M340.2,219.7h0.7c0.3,0,0.5-0.3,0.5-0.6c0-0.2-0.2-0.5-0.5-0.5h-0.8L340.2,219.7L340.2,219.7z"
		/>
</g>
</svg>
