<?xml version="1.0" encoding="UTF-8"?>
<svg xmlns="http://www.w3.org/2000/svg" xmlns:xlink="http://www.w3.org/1999/xlink" width="252pt" height="252pt" viewBox="0 0 252 252" version="1.1">
<g id="surface1">
<path style=" stroke:none;fill-rule:nonzero;fill:rgb(62.745098%,50.196078%,18.823529%);fill-opacity:1;" d="M 74.507812 184.988281 C 87.265625 191.800781 100.617188 196.808594 111.898438 199.203125 L 95.5625 209.203125 C 79.3125 203.800781 63.574219 194.671875 50.914062 184.988281 L 74.507812 184.988281 M 201.09375 184.988281 C 188.441406 194.671875 172.703125 203.800781 156.410156 209.203125 L 140.078125 199.203125 C 151.359375 196.808594 164.703125 191.800781 177.464844 184.996094 Z M 96.605469 211.824219 C 106.5 214.96875 116.679688 216.761719 125.984375 216.761719 C 135.320312 216.761719 145.46875 214.976562 155.355469 211.824219 L 155.355469 226.835938 C 147.484375 230.433594 137.207031 232.816406 125.984375 232.816406 C 114.800781 232.816406 104.511719 230.421875 96.605469 226.835938 Z M 96.605469 211.824219 "/>
<path style=" stroke:none;fill-rule:nonzero;fill:rgb(62.745098%,50.196078%,18.823529%);fill-opacity:1;" d="M 50.902344 184.988281 C 44.238281 179.894531 38.429688 174.621094 33.855469 169.6875 L 33.855469 151.980469 C 42.832031 164.726562 58.203125 176.3125 74.507812 185.003906 L 50.902344 184.988281 M 177.460938 184.988281 C 193.75 176.320312 209.117188 164.734375 218.105469 151.980469 L 218.105469 169.6875 C 213.542969 174.621094 207.753906 179.882812 201.089844 184.988281 Z M 177.460938 184.988281 "/>
<path style="fill:none;stroke-width:0.048;stroke-linecap:butt;stroke-linejoin:miter;stroke:rgb(63.137255%,52.156863%,22.352941%);stroke-opacity:1;stroke-miterlimit:3.864;" d="M 191.677517 420.286148 C 211.309524 426.525298 231.507316 430.082775 249.968998 430.082775 C 268.492684 430.082775 288.628472 426.540799 308.244978 420.286148 L 308.244978 450.071305 C 292.627728 457.209511 272.236173 461.937314 249.968998 461.937314 C 227.779328 461.937314 207.364521 457.18626 191.677517 450.071305 Z M 191.677517 420.286148 " transform="matrix(0.504,0,0,0.504,0,0)"/>
<path style="fill:none;stroke-width:0.048;stroke-linecap:butt;stroke-linejoin:miter;stroke:rgb(63.137255%,52.156863%,22.352941%);stroke-opacity:1;stroke-miterlimit:3.864;" d="M 67.173549 319.452195 L 67.173549 301.548549 C 98.997086 346.648686 171.076699 384.471106 222.03621 395.244296 L 189.623636 415.085565 C 140.400236 398.716518 93.470982 365.063864 67.18905 336.681548 L 67.18905 319.452195 Z M 67.173549 319.452195 " transform="matrix(0.504,0,0,0.504,0,0)"/>
<path style="fill:none;stroke-width:0.048;stroke-linecap:butt;stroke-linejoin:miter;stroke:rgb(63.137255%,52.156863%,22.352941%);stroke-opacity:1;stroke-miterlimit:3.864;" d="M 432.764447 336.681548 C 406.536768 365.079365 359.68502 398.716518 310.337612 415.070064 L 277.932788 395.244296 C 328.876798 384.455605 400.948661 346.648686 432.779948 301.548549 L 432.779948 336.681548 Z M 432.764447 336.681548 " transform="matrix(0.504,0,0,0.504,0,0)"/>
<path style=" stroke:none;fill-rule:nonzero;fill:rgb(14.509804%,23.137255%,46.27451%);fill-opacity:1;" d="M 198.273438 168.683594 L 198.273438 153.488281 L 183.675781 175.464844 C 182.4375 177.339844 181.621094 178.878906 181.121094 180.496094 C 187.128906 177.007812 192.886719 173.078125 198.273438 168.683594 "/>
<path style="fill:none;stroke-width:0.114;stroke-linecap:butt;stroke-linejoin:miter;stroke:rgb(14.509804%,23.137255%,46.27451%);stroke-opacity:1;stroke-miterlimit:3.864;" d="M 393.399678 334.68967 L 393.399678 304.540241 L 364.436074 348.144531 C 361.979167 351.864769 360.359313 354.918465 359.36725 358.12717 C 371.287512 351.205977 382.711744 343.408978 393.399678 334.68967 Z M 393.399678 334.68967 " transform="matrix(0.504,0,0,0.504,0,0)"/>
<path style=" stroke:none;fill-rule:nonzero;fill:rgb(14.509804%,23.137255%,46.27451%);fill-opacity:1;" d="M 138.503906 213.734375 C 143.867188 212.933594 147.378906 211.898438 153.316406 210.015625 L 138.503906 200.847656 L 138.503906 213.734375 "/>
<path style="fill:none;stroke-width:0.114;stroke-linecap:butt;stroke-linejoin:miter;stroke:rgb(14.509804%,23.137255%,46.27451%);stroke-opacity:1;stroke-miterlimit:3.864;" d="M 274.809338 424.076141 C 285.450769 422.487289 292.418465 420.433408 304.199219 416.697669 L 274.809338 398.507254 Z M 274.809338 424.076141 " transform="matrix(0.504,0,0,0.504,0,0)"/>
<path style=" stroke:none;fill-rule:nonzero;fill:rgb(14.509804%,23.137255%,46.27451%);fill-opacity:1;" d="M 113.53125 200.855469 L 98.683594 210.023438 C 104.621094 211.898438 108.132812 212.945312 113.53125 213.742188 L 113.53125 200.855469 "/>
<path style="fill:none;stroke-width:0.114;stroke-linecap:butt;stroke-linejoin:miter;stroke:rgb(14.509804%,23.137255%,46.27451%);stroke-opacity:1;stroke-miterlimit:3.864;" d="M 225.260417 398.522755 L 195.800781 416.71317 C 207.581535 420.433408 214.549231 422.510541 225.260417 424.091642 Z M 225.260417 398.522755 " transform="matrix(0.504,0,0,0.504,0,0)"/>
<path style=" stroke:none;fill-rule:nonzero;fill:rgb(14.509804%,23.137255%,46.27451%);fill-opacity:1;" d="M 198.304688 189.769531 L 196.03125 191.371094 C 191.097656 194.792969 185.851562 198.070312 180.382812 201.078125 L 180.382812 207.300781 C 180.382812 207.300781 190.265625 200.96875 194.792969 197.785156 C 197.511719 195.835938 198.121094 194.082031 198.273438 191.378906 L 198.304688 189.769531 "/>
<path style="fill:none;stroke-width:0.114;stroke-linecap:butt;stroke-linejoin:miter;stroke:rgb(14.509804%,23.137255%,46.27451%);stroke-opacity:1;stroke-miterlimit:3.864;" d="M 393.461682 376.526848 L 388.950893 379.704551 C 379.162016 386.493986 368.7531 392.996652 357.902406 398.964534 L 357.902406 411.311074 C 357.902406 411.311074 377.511161 398.74752 386.493986 392.430866 C 391.888331 388.563368 393.097408 385.083395 393.399678 379.720052 Z M 393.461682 376.526848 " transform="matrix(0.504,0,0,0.504,0,0)"/>
<path style=" stroke:none;fill-rule:nonzero;fill:rgb(14.509804%,23.137255%,46.27451%);fill-opacity:1;" d="M 51.632812 166.9375 L 51.640625 150.226562 L 35.808594 150.265625 C 40.464844 156.40625 45.800781 161.957031 51.632812 166.9375 "/>
<path style="fill:none;stroke-width:0.114;stroke-linecap:butt;stroke-linejoin:miter;stroke:rgb(14.509804%,23.137255%,46.27451%);stroke-opacity:1;stroke-miterlimit:3.864;" d="M 102.446057 331.225198 L 102.461558 298.068576 L 71.048797 298.146081 C 80.287388 310.329861 90.874566 321.343316 102.446057 331.225198 Z M 102.446057 331.225198 " transform="matrix(0.504,0,0,0.504,0,0)"/>
<path style=" stroke:none;fill-rule:nonzero;fill:rgb(14.509804%,23.137255%,46.27451%);fill-opacity:1;" d="M 70.890625 180.503906 C 70.394531 178.886719 69.578125 177.339844 68.367188 175.464844 L 53.734375 153.480469 L 53.734375 168.699219 C 59.117188 173.085938 64.878906 177.015625 70.890625 180.503906 "/>
<path style="fill:none;stroke-width:0.114;stroke-linecap:butt;stroke-linejoin:miter;stroke:rgb(14.509804%,23.137255%,46.27451%);stroke-opacity:1;stroke-miterlimit:3.864;" d="M 140.656002 358.142671 C 139.671689 354.933966 138.051835 351.864769 135.649182 348.144531 L 106.615823 304.52474 L 106.615823 334.720672 C 117.296007 343.424479 128.727989 351.221478 140.656002 358.142671 Z M 140.656002 358.142671 " transform="matrix(0.504,0,0,0.504,0,0)"/>
<path style=" stroke:none;fill-rule:nonzero;fill:rgb(14.509804%,23.137255%,46.27451%);fill-opacity:1;" d="M 53.695312 189.742188 L 53.761719 191.371094 C 53.84375 194.074219 54.496094 195.828125 57.207031 197.769531 C 61.699219 200.953125 71.621094 207.285156 71.621094 207.285156 L 71.621094 201.046875 C 66.171875 198.046875 60.921875 194.769531 55.996094 191.363281 L 53.695312 189.742188 "/>
<path style="fill:none;stroke-width:0.114;stroke-linecap:butt;stroke-linejoin:miter;stroke:rgb(14.509804%,23.137255%,46.27451%);stroke-opacity:1;stroke-miterlimit:3.864;" d="M 106.538318 376.472594 L 106.670077 379.704551 C 106.832837 385.067894 108.12717 388.547867 113.506014 392.399864 C 122.419085 398.716518 142.105345 411.280072 142.105345 411.280072 L 142.105345 398.90253 C 131.293403 392.950149 120.876736 386.447483 111.103361 379.68905 Z M 106.538318 376.472594 " transform="matrix(0.504,0,0,0.504,0,0)"/>
<path style=" stroke:none;fill-rule:nonzero;fill:rgb(14.509804%,23.137255%,46.27451%);fill-opacity:1;" d="M 200.328125 150.226562 L 200.328125 166.960938 C 206.164062 161.964844 211.511719 156.417969 216.1875 150.265625 L 200.328125 150.226562 "/>
<path style="fill:none;stroke-width:0.114;stroke-linecap:butt;stroke-linejoin:miter;stroke:rgb(14.509804%,23.137255%,46.27451%);stroke-opacity:1;stroke-miterlimit:3.864;" d="M 397.476438 298.068576 L 397.476438 331.271701 C 409.05568 321.358817 419.666109 310.353113 428.943452 298.146081 Z M 397.476438 298.068576 " transform="matrix(0.504,0,0,0.504,0,0)"/>
<path style=" stroke:none;fill-rule:nonzero;fill:rgb(62.745098%,50.196078%,18.823529%);fill-opacity:1;" d="M 54.789062 107.238281 C 54.789062 143.261719 86.402344 177.785156 125.984375 189.089844 C 165.640625 177.785156 197.253906 143.261719 197.253906 107.238281 L 197.253906 20.246094 L 54.789062 20.246094 L 54.789062 107.238281 "/>
<path style="fill:none;stroke-width:0.077;stroke-linecap:butt;stroke-linejoin:miter;stroke:rgb(63.137255%,52.156863%,22.352941%);stroke-opacity:1;stroke-miterlimit:3.864;" d="M 108.708457 212.774368 C 108.708457 284.249442 171.433222 352.748326 249.968998 375.178261 C 328.652034 352.748326 391.376798 284.249442 391.376798 212.774368 L 391.376798 40.170821 L 108.708457 40.170821 Z M 108.708457 212.774368 " transform="matrix(0.504,0,0,0.504,0,0)"/>
<path style=" stroke:none;fill-rule:nonzero;fill:rgb(9.019608%,9.019608%,9.019608%);fill-opacity:1;" d="M 218.105469 151.988281 C 202.074219 174.71875 165.746094 193.773438 140.070312 199.210938 L 156.40625 209.203125 C 181.28125 200.960938 204.890625 184 218.105469 169.695312 L 218.105469 151.988281 M 138.503906 213.734375 C 143.867188 212.941406 147.386719 211.898438 153.324219 210.023438 L 138.503906 200.855469 Z M 113.53125 200.855469 L 98.683594 210.023438 C 104.621094 211.898438 108.132812 212.945312 113.53125 213.730469 Z M 33.855469 169.695312 C 47.109375 184.015625 70.753906 200.960938 95.5625 209.203125 L 111.898438 199.210938 C 86.222656 193.773438 49.886719 174.71875 33.855469 151.988281 Z M 96.605469 226.835938 C 104.507812 230.4375 114.800781 232.816406 125.976562 232.816406 C 137.207031 232.816406 147.484375 230.433594 155.355469 226.835938 L 155.355469 211.824219 C 145.46875 214.96875 135.320312 216.761719 125.976562 216.761719 C 116.679688 216.761719 106.5 214.976562 96.605469 211.824219 Z M 198.304688 189.753906 L 196.03125 191.371094 C 191.097656 194.785156 185.84375 198.070312 180.382812 201.070312 L 180.382812 207.292969 C 180.382812 207.292969 190.265625 200.960938 194.792969 197.777344 C 197.511719 195.835938 198.121094 194.074219 198.273438 191.378906 Z M 51.632812 166.9375 L 51.640625 150.226562 L 35.804688 150.265625 C 40.464844 156.414062 45.796875 161.957031 51.632812 166.9375 Z M 70.882812 180.503906 C 70.394531 178.886719 69.578125 177.339844 68.359375 175.464844 L 53.734375 153.488281 L 53.734375 168.699219 C 59.117188 173.085938 64.878906 177.015625 70.882812 180.503906 Z M 53.695312 189.742188 L 53.761719 191.371094 C 53.84375 194.074219 54.496094 195.828125 57.207031 197.769531 C 61.699219 200.953125 71.621094 207.285156 71.621094 207.285156 L 71.621094 201.046875 C 66.171875 198.046875 60.921875 194.769531 55.996094 191.363281 Z M 200.328125 150.226562 L 200.328125 166.960938 C 206.164062 161.964844 211.511719 156.417969 216.1875 150.265625 Z M 178.964844 181.71875 C 179.195312 178.984375 180.164062 176.726562 182.300781 173.207031 C 185.378906 168.230469 199.285156 148.015625 199.285156 148.015625 L 220.257812 148.015625 L 220.257812 170.625 C 215.136719 176.238281 208.320312 182.339844 200.441406 188.191406 C 200.441406 188.191406 200.441406 190.949219 200.355469 191.363281 C 200.117188 195.441406 198.804688 197.585938 196.492188 199.203125 C 193.160156 201.484375 186.648438 206.121094 178.382812 210.773438 L 178.382812 202.140625 C 171.621094 205.710938 164.5625 208.832031 157.445312 211.183594 L 157.445312 228.136719 C 148.722656 232.117188 139.019531 234.691406 125.976562 234.691406 C 113.011719 234.691406 103.246094 232.117188 94.550781 228.136719 L 94.550781 211.183594 C 87.4375 208.816406 80.363281 205.699219 73.585938 202.101562 L 73.585938 210.773438 C 65.363281 206.113281 58.875 201.484375 55.515625 199.203125 C 53.1875 197.585938 51.84375 195.449219 51.640625 191.363281 L 51.59375 188.214844 C 43.679688 182.34375 36.875 176.230469 31.757812 170.625 L 31.757812 148.015625 L 52.757812 148.015625 C 52.757812 148.015625 66.660156 168.230469 69.742188 173.207031 C 71.878906 176.773438 72.832031 179.054688 73.253906 181.832031 C 79.894531 185.527344 86.832031 188.691406 93.863281 191.363281 C 101.03125 194.105469 108.3125 196.355469 115.523438 198.101562 L 115.523438 213.945312 C 118.847656 214.246094 123.273438 214.632812 125.984375 214.632812 C 128.710938 214.632812 133.121094 214.246094 136.488281 213.945312 L 136.488281 198.101562 C 143.695312 196.347656 150.972656 194.097656 158.140625 191.363281 C 165.242188 188.675781 172.242188 185.464844 178.964844 181.71875 Z M 198.273438 168.683594 L 198.273438 153.488281 L 183.675781 175.464844 C 182.4375 177.339844 181.621094 178.878906 181.121094 180.496094 C 187.128906 177.007812 192.886719 173.078125 198.273438 168.683594 Z M 198.273438 168.683594 "/>
<path style=" stroke:none;fill-rule:nonzero;fill:rgb(9.019608%,9.019608%,9.019608%);fill-opacity:1;" d="M 54.789062 107.238281 C 54.789062 143.261719 86.402344 177.785156 125.984375 189.089844 C 165.640625 177.785156 197.253906 143.261719 197.253906 107.238281 L 197.253906 20.253906 L 54.789062 20.253906 L 54.789062 107.238281 M 199.316406 107.769531 C 199.316406 144.804688 165.996094 180.335938 125.984375 191.339844 C 86.039062 180.335938 52.722656 144.804688 52.722656 107.769531 L 52.722656 18.09375 L 199.316406 18.09375 Z M 199.316406 107.769531 "/>
<path style=" stroke:none;fill-rule:nonzero;fill:rgb(100%,100%,100%);fill-opacity:1;" d="M 125.984375 111.363281 C 130.953125 111.363281 130.546875 109.492188 133.847656 109.492188 L 150.582031 109.492188 L 150.582031 78.351562 L 148.625 76.910156 L 103.382812 76.910156 L 101.386719 78.351562 L 101.386719 109.492188 L 118.160156 109.492188 C 121.453125 109.492188 121.015625 111.363281 125.984375 111.363281 "/>
<path style="fill:none;stroke-width:0.077;stroke-linecap:butt;stroke-linejoin:miter;stroke:rgb(14.509804%,23.137255%,46.27451%);stroke-opacity:1;stroke-miterlimit:3.864;" d="M 173.649864 199.482267 L 180.183532 199.482267 C 180.183532 197.389633 178.610181 195.862785 176.680308 195.862785 C 174.742684 195.862785 173.649864 197.405134 173.649864 199.482267 Z M 173.649864 199.482267 " transform="matrix(0.504,0,0,0.504,0,0)"/>
<path style="fill:none;stroke-width:0.077;stroke-linecap:butt;stroke-linejoin:miter;stroke:rgb(14.509804%,23.137255%,46.27451%);stroke-opacity:1;stroke-miterlimit:3.864;" d="M 180.183532 172.588046 L 173.649864 172.34778 C 173.649864 174.595424 174.734933 176.137773 176.664807 176.137773 C 178.625682 176.153274 180.183532 174.610925 180.183532 172.588046 Z M 180.183532 172.588046 " transform="matrix(0.504,0,0,0.504,0,0)"/>
<path style="fill:none;stroke-width:0.077;stroke-linecap:butt;stroke-linejoin:miter;stroke:rgb(14.509804%,23.137255%,46.27451%);stroke-opacity:1;stroke-miterlimit:3.864;" d="M 180.183532 167.992001 C 180.183532 166.054377 178.610181 164.38027 176.680308 164.38027 C 174.742684 164.38027 173.665365 166.054377 173.665365 167.992001 Z M 180.183532 167.992001 " transform="matrix(0.504,0,0,0.504,0,0)"/>
<path style="fill:none;stroke-width:0.077;stroke-linecap:butt;stroke-linejoin:miter;stroke:rgb(14.509804%,23.137255%,46.27451%);stroke-opacity:1;stroke-miterlimit:3.864;" d="M 197.761657 207.798549 L 182.570685 207.798549 C 181.56312 209.829179 179.121714 211.162264 176.680308 211.162264 C 173.153832 211.162264 170.069134 208.100818 170.069134 204.388331 C 167.774988 203.783792 166.899182 202.838232 166.899182 201.644655 C 166.899182 200.458829 167.782738 199.482267 168.929812 199.482267 C 170.069134 195.258247 173.146081 192.18905 176.680308 192.18905 C 179.346478 192.18905 181.640625 193.90966 182.570685 196.281312 L 197.6609 196.281312 L 197.474888 176.362537 L 182.555184 176.362537 C 181.547619 178.222656 179.106213 179.648748 176.664807 179.648748 C 173.146081 179.648748 170.061384 176.680308 170.061384 173.022073 C 167.767237 172.34778 166.883681 171.332465 166.883681 170.278398 C 166.883681 168.945312 167.767237 167.96875 168.89881 167.96875 C 170.061384 163.822235 173.13058 160.760789 176.664807 160.760789 C 179.330977 160.760789 181.625124 162.396143 182.555184 164.83755 L 197.389633 164.83755 L 197.281126 152.522011 L 201.326885 149.731833 C 178.075397 144.011967 162.202381 132.262215 150.220114 110.987103 L 150.220114 259.664869 C 161.667597 239.358569 176.695809 227.531312 197.854663 221.470424 Z M 197.761657 207.798549 " transform="matrix(0.504,0,0,0.504,0,0)"/>
<path style="fill:none;stroke-width:0.077;stroke-linecap:butt;stroke-linejoin:miter;stroke:rgb(14.509804%,23.137255%,46.27451%);stroke-opacity:1;stroke-miterlimit:3.864;" d="M 180.183532 203.799293 L 173.649864 203.799293 C 173.649864 206.046937 174.734933 207.759797 176.664807 207.759797 C 178.610181 207.759797 180.168031 206.046937 180.168031 204.05506 L 180.168031 203.799293 Z M 180.183532 203.799293 " transform="matrix(0.504,0,0,0.504,0,0)"/>
<path style=" stroke:none;fill-rule:nonzero;fill:rgb(9.019608%,9.019608%,9.019608%);fill-opacity:1;" d="M 94.664062 206.792969 L 94.785156 207.195312 L 96.777344 208.015625 L 96.386719 206.792969 L 94.664062 206.792969 M 120.359375 220.660156 L 122.09375 225.605469 L 118.542969 225.378906 Z M 114.867188 229.859375 L 116.960938 229.96875 L 118.0625 227.054688 L 122.613281 227.386719 L 123.769531 230.5 L 125.871094 230.640625 L 121.421875 218.898438 L 119.328125 218.742188 Z M 136.851562 222.152344 C 136.566406 219.683594 134.464844 218.410156 131.933594 218.527344 C 128.5 218.742188 126.503906 221.558594 126.503906 224.875 C 126.582031 228.089844 128.679688 230.71875 132.117188 230.5 C 134.902344 230.332031 136.8125 228.363281 136.917969 225.597656 L 134.972656 225.738281 C 134.828125 227.355469 133.851562 228.777344 132.039062 228.890625 C 129.585938 229.03125 128.53125 226.90625 128.53125 224.734375 C 128.5 222.523438 129.472656 220.320312 131.9375 220.175781 C 133.636719 220.054688 134.464844 220.984375 134.828125 222.261719 Z M 136.851562 222.152344 "/>
<path style=" stroke:none;fill-rule:nonzero;fill:rgb(9.019608%,9.019608%,9.019608%);fill-opacity:1;" d="M 96.386719 206.792969 L 92.6875 195.148438 L 90.84375 194.4375 L 86.644531 204.195312 L 88.675781 204.996094 L 89.734375 202.222656 L 93.773438 203.871094 L 94.664062 206.800781 L 96.386719 206.800781 M 180.769531 186.765625 L 183.585938 185.125 C 184.492188 184.597656 185.042969 184.753906 185.042969 185.871094 C 185.042969 186.839844 184.394531 187.777344 183.585938 188.273438 L 180.769531 189.839844 Z M 180.769531 191.257812 L 183.8125 189.535156 C 184.824219 188.941406 185.472656 189.203125 185.472656 190.320312 C 185.472656 191.410156 184.824219 192.421875 183.8125 192.980469 L 180.769531 194.746094 Z M 172.453125 191.445312 L 174.121094 195.554688 L 170.972656 196.980469 Z M 191.621094 180.148438 C 193.386719 178.378906 194.472656 179.425781 194.835938 181.238281 C 195.160156 182.988281 194.730469 185.535156 192.917969 187.292969 C 191.039062 189.054688 189.957031 188.003906 189.664062 186.128906 C 189.300781 184.378906 189.742188 181.910156 191.621094 180.148438 Z M 199.261719 175.097656 L 201.832031 173.117188 C 202.644531 172.484375 203.378906 172.113281 203.378906 173.527344 C 203.378906 174.648438 202.84375 175.664062 201.863281 176.515625 L 199.261719 178.464844 Z M 91.742188 196.824219 L 93.261719 202.148438 L 90.1875 200.871094 Z M 179.03125 197.351562 L 183.554688 194.738281 C 186.152344 193.359375 187.203125 191.332031 187.203125 189.535156 C 187.203125 188.039062 186.515625 187.367188 185.328125 187.738281 C 186.226562 186.734375 186.742188 185.625 186.742188 184.519531 C 186.742188 182.648438 185.585938 182.429688 183.8125 183.402344 L 179.039062 186.128906 L 179.039062 197.351562 Z M 167.710938 203.078125 L 169.695312 202.148438 L 170.5625 198.734375 L 174.6875 196.832031 L 175.914062 199.234375 L 177.753906 198.375 L 173.125 189.183594 L 171.242188 190.027344 Z M 158.890625 206.480469 L 166.511719 203.386719 L 166.511719 201.65625 L 160.808594 203.976562 L 160.808594 194.476562 L 158.890625 195.269531 Z M 191.296875 178.757812 C 188.722656 181.238281 187.679688 184.945312 188.183594 187.632812 C 188.660156 190.320312 190.609375 191.070312 193.144531 188.609375 C 195.714844 186.128906 196.863281 182.46875 196.371094 179.855469 C 195.847656 177.121094 193.894531 176.335938 191.296875 178.757812 Z M 197.667969 185.269531 L 199.261719 184.039062 L 199.261719 179.589844 L 201.613281 177.71875 C 203.0625 176.636719 203.378906 177.1875 203.378906 179.21875 C 203.378906 179.695312 203.378906 180.335938 203.628906 180.632812 L 205.34375 179.324219 C 205.011719 179.144531 204.859375 178.089844 204.859375 176.816406 C 204.859375 175.097656 204.066406 175.285156 203.523438 175.625 C 203.808594 175.246094 204.996094 173.730469 204.996094 171.691406 C 204.996094 169.824219 203.980469 169.574219 201.988281 171.101562 L 197.65625 174.535156 L 197.65625 185.269531 Z M 206.558594 178.089844 L 212.351562 172.777344 L 212.351562 171.09375 L 207.980469 175.125 L 207.980469 171.984375 L 211.957031 168.359375 L 211.957031 166.828125 L 207.980469 170.460938 L 207.980469 167.65625 L 212.246094 163.640625 L 212.246094 162.03125 L 206.566406 167.234375 L 206.566406 178.089844 Z M 37.878906 168.472656 C 37.917969 171.242188 39.332031 173.523438 41.066406 174.761719 C 42.539062 175.804688 44.027344 175.882812 44.027344 173.382812 C 44.027344 172.21875 43.53125 170.570312 42.546875 169.484375 C 42.148438 169.003906 40.484375 167.203125 40.386719 167.023438 C 39.875 166.417969 39.519531 165.710938 39.519531 164.921875 C 39.519531 163.84375 40.238281 164.078125 40.886719 164.449219 C 41.792969 165.121094 42.410156 166.132812 42.480469 167.664062 L 43.785156 168.5625 C 43.785156 166.230469 42.480469 164.078125 40.886719 162.914062 C 39.519531 161.941406 38.175781 162.046875 38.175781 164.222656 C 38.175781 165.421875 38.574219 166.871094 39.84375 168.261719 L 42.085938 170.804688 C 42.410156 171.214844 42.699219 171.78125 42.699219 172.625 C 42.699219 173.527344 42.222656 174.0625 41.105469 173.15625 C 40.0625 172.445312 39.1875 171.175781 39.1875 169.410156 Z M 52.246094 175.917969 C 52.070312 173.457031 50.695312 171.09375 48.847656 169.9375 C 46.429688 168.40625 45.015625 170.164062 45.015625 173.335938 C 45.015625 176.554688 46.429688 180.148438 48.847656 181.675781 C 50.800781 182.90625 52.175781 181.929688 52.246094 179.316406 L 50.863281 178.421875 C 50.792969 179.996094 50.078125 180.898438 48.839844 180.035156 C 47.144531 178.957031 46.375 176.371094 46.375 174.234375 C 46.375 172.121094 47.152344 170.421875 48.839844 171.546875 C 49.992188 172.292969 50.574219 173.601562 50.832031 175.066406 Z M 53.914062 185.222656 L 55.542969 186.355469 L 55.542969 175.359375 L 53.914062 174.226562 Z M 57.132812 187.671875 L 63.679688 192.082031 L 63.679688 190.351562 L 58.6875 187.019531 L 58.6875 183.734375 L 63.285156 186.726562 L 63.285156 185.117188 L 58.6875 182.128906 L 58.6875 179.167969 L 63.609375 182.460938 L 63.609375 180.730469 L 57.132812 176.5 Z M 65.492188 193.128906 L 67.152344 194.171875 L 67.152344 185.871094 L 71.351562 196.679688 L 73.050781 197.691406 L 73.050781 186.324219 L 71.570312 185.457031 L 71.570312 193.765625 L 67.332031 183.023438 L 65.5 181.929688 L 65.5 193.128906 Z M 74.78125 188.941406 L 77.671875 190.390625 L 77.671875 199.785156 L 79.554688 200.871094 L 79.554688 191.484375 L 82.566406 192.933594 L 82.566406 191.214844 L 74.78125 187.285156 Z M 84.117188 202.957031 L 85.988281 203.816406 L 85.988281 192.820312 L 84.117188 191.921875 Z M 84.117188 202.957031 "/>
<path style=" stroke:none;fill-rule:nonzero;fill:rgb(14.509804%,23.137255%,46.27451%);fill-opacity:1;" d="M 142.472656 74.546875 C 144.320312 59.230469 150.113281 49.15625 162.242188 41.945312 L 89.769531 41.945312 C 101.847656 49.148438 107.632812 59.191406 109.816406 74.496094 C 112.140625 74.046875 114.753906 73.421875 117.949219 73.421875 C 121.941406 73.421875 124.722656 74.78125 125.992188 77.273438 C 126.972656 74.78125 130.046875 73.421875 134.066406 73.421875 C 137.386719 73.421875 140.078125 74.113281 142.472656 74.546875 "/>
<path style="fill:none;stroke-width:0.077;stroke-linecap:butt;stroke-linejoin:miter;stroke:rgb(14.509804%,23.137255%,46.27451%);stroke-opacity:1;stroke-miterlimit:3.864;" d="M 282.683842 147.910466 C 286.349826 117.520771 297.843812 97.532242 321.909102 83.224826 L 178.114149 83.224826 C 202.078683 97.516741 213.557168 117.443266 217.889695 147.80971 C 222.50124 146.918403 227.686322 145.678323 234.026228 145.678323 C 241.947235 145.678323 247.465588 148.375496 249.984499 153.320312 C 251.929874 148.375496 258.029514 145.678323 266.004774 145.678323 C 272.592696 145.678323 277.932788 147.050161 282.683842 147.910466 Z M 282.683842 147.910466 " transform="matrix(0.504,0,0,0.504,0,0)"/>
<path style=" stroke:none;fill-rule:nonzero;fill:rgb(14.509804%,23.137255%,46.27451%);fill-opacity:1;" d="M 152.332031 111.628906 C 163.003906 114.6875 170.578125 120.644531 176.335938 130.878906 L 176.335938 55.945312 C 170.238281 66.820312 162.097656 72.742188 150.65625 75.589844 L 152.570312 76.878906 L 152.570312 83.058594 L 162.175781 83.058594 C 164.667969 83.058594 166.289062 83.546875 166.289062 85.640625 C 166.289062 88.109375 165.023438 88.894531 162.703125 88.894531 L 152.5625 88.894531 L 152.5625 98.945312 L 162.167969 98.945312 C 164.660156 98.945312 166.28125 99.394531 166.28125 101.53125 C 166.28125 103.945312 165.011719 104.746094 162.695312 104.746094 L 152.554688 104.746094 L 152.554688 111.636719 L 152.332031 111.636719 "/>
<path style="fill:none;stroke-width:0.077;stroke-linecap:butt;stroke-linejoin:miter;stroke:rgb(14.509804%,23.137255%,46.27451%);stroke-opacity:1;stroke-miterlimit:3.864;" d="M 302.246094 221.485925 C 323.420449 227.554563 338.448661 239.37407 349.872892 259.68037 L 349.872892 111.002604 C 337.774368 132.579985 321.622334 144.329737 298.921131 149.979849 L 302.718874 152.537512 L 302.718874 164.798797 L 321.777344 164.798797 C 326.72216 164.798797 329.938616 165.767609 329.938616 169.921875 C 329.938616 174.820188 327.427455 176.378038 322.823661 176.378038 L 302.703373 176.378038 L 302.703373 196.320064 L 321.761843 196.320064 C 326.706659 196.320064 329.923115 197.211372 329.923115 201.450893 C 329.923115 206.240699 327.404204 207.829551 322.80816 207.829551 L 302.687872 207.829551 L 302.687872 221.501426 L 302.246094 221.501426 Z M 302.246094 221.485925 " transform="matrix(0.504,0,0,0.504,0,0)"/>
<path style=" stroke:none;fill-rule:nonzero;fill:rgb(14.509804%,23.137255%,46.27451%);fill-opacity:1;" d="M 111.386719 111.628906 L 109.996094 111.785156 C 107.964844 127.871094 102.195312 138.453125 89.761719 145.914062 L 162.234375 145.914062 C 149.773438 138.453125 144.003906 127.886719 142.289062 111.839844 L 140.648438 111.628906 L 133.914062 111.628906 C 130.539062 111.628906 130.945312 113.3125 125.976562 113.3125 C 121.019531 113.3125 121.453125 111.628906 118.160156 111.628906 L 111.386719 111.628906 "/>
<path style="fill:none;stroke-width:0.077;stroke-linecap:butt;stroke-linejoin:miter;stroke:rgb(14.509804%,23.137255%,46.27451%);stroke-opacity:1;stroke-miterlimit:3.864;" d="M 221.005394 221.485925 L 218.246218 221.795945 C 214.21596 253.712488 202.768477 274.708581 178.098648 289.512029 L 321.893601 289.512029 C 297.169519 274.708581 285.722036 253.74349 282.319568 221.904452 L 279.06436 221.485925 L 265.702505 221.485925 C 259.006076 221.485925 259.812128 224.826389 249.953497 224.826389 C 240.118118 224.826389 240.978423 221.485925 234.444754 221.485925 Z M 221.005394 221.485925 " transform="matrix(0.504,0,0,0.504,0,0)"/>
<path style=" stroke:none;fill-rule:nonzero;fill:rgb(14.509804%,23.137255%,46.27451%);fill-opacity:1;" d="M 90.8125 102.714844 L 87.519531 102.714844 C 87.519531 103.847656 88.066406 104.695312 89.039062 104.695312 C 90.019531 104.695312 90.804688 103.847656 90.804688 102.835938 L 90.804688 102.714844 M 99.671875 104.730469 L 92.015625 104.730469 C 91.507812 105.753906 90.277344 106.425781 89.046875 106.425781 C 87.269531 106.425781 85.714844 104.890625 85.714844 103.011719 C 84.558594 102.714844 84.121094 102.230469 84.121094 101.628906 C 84.121094 101.03125 84.5625 100.539062 85.140625 100.539062 C 85.714844 98.410156 87.265625 96.863281 89.046875 96.863281 C 90.390625 96.863281 91.546875 97.730469 92.015625 98.933594 L 99.621094 98.933594 L 99.527344 88.886719 L 92.007812 88.886719 C 91.5 89.824219 90.269531 90.542969 89.039062 90.542969 C 87.265625 90.542969 85.710938 89.046875 85.710938 87.203125 C 84.554688 86.863281 84.117188 86.351562 84.117188 85.820312 C 84.117188 85.148438 84.554688 84.65625 85.125 84.65625 C 85.710938 82.566406 87.257812 81.023438 89.039062 81.023438 C 90.382812 81.023438 91.539062 81.847656 92.007812 83.078125 L 99.484375 83.078125 L 99.4375 76.871094 L 101.46875 75.464844 C 89.75 72.582031 81.75 66.660156 75.710938 55.9375 L 75.710938 130.871094 C 81.480469 120.636719 89.054688 114.675781 99.726562 111.621094 Z M 90.8125 84.667969 C 90.8125 83.691406 90.019531 82.847656 89.046875 82.847656 C 88.070312 82.847656 87.527344 83.691406 87.527344 84.667969 Z M 90.8125 86.984375 L 87.519531 86.863281 C 87.519531 87.996094 88.066406 88.773438 89.039062 88.773438 C 90.027344 88.78125 90.8125 88.003906 90.8125 86.984375 Z M 87.519531 100.539062 L 90.8125 100.539062 C 90.8125 99.484375 90.019531 98.714844 89.046875 98.714844 C 88.070312 98.714844 87.519531 99.492188 87.519531 100.539062 Z M 87.519531 100.539062 "/>
<path style=" stroke:none;fill-rule:nonzero;fill:rgb(9.019608%,9.019608%,9.019608%);fill-opacity:1;" d="M 90.8125 86.984375 L 87.519531 86.863281 C 87.519531 87.996094 88.066406 88.773438 89.046875 88.773438 C 90.027344 88.78125 90.8125 88.003906 90.8125 86.984375 M 90.8125 84.667969 C 90.8125 83.691406 90.019531 82.847656 89.046875 82.847656 C 88.066406 82.847656 87.519531 83.691406 87.519531 84.667969 Z M 142.472656 74.554688 C 144.320312 59.230469 150.113281 49.164062 162.242188 41.941406 L 89.769531 41.941406 C 101.847656 49.15625 107.625 59.199219 109.816406 74.492188 C 112.140625 74.054688 114.753906 73.421875 117.941406 73.421875 C 121.941406 73.421875 124.722656 74.785156 125.984375 77.28125 C 126.972656 74.785156 130.046875 73.421875 134.066406 73.421875 C 137.386719 73.421875 140.078125 74.113281 142.472656 74.554688 Z M 152.332031 111.628906 C 163.003906 114.6875 170.570312 120.644531 176.320312 130.878906 L 176.320312 55.945312 C 170.238281 66.820312 162.089844 72.742188 150.65625 75.589844 L 152.570312 76.878906 L 152.570312 83.058594 L 162.167969 83.058594 C 164.652344 83.058594 166.289062 83.546875 166.289062 85.640625 C 166.289062 88.109375 165.023438 88.894531 162.703125 88.894531 L 152.5625 88.894531 L 152.5625 98.945312 L 162.160156 98.945312 C 164.644531 98.945312 166.28125 99.394531 166.28125 101.53125 C 166.28125 103.953125 165.011719 104.746094 162.695312 104.746094 L 152.554688 104.746094 L 152.554688 111.636719 L 152.332031 111.636719 Z M 108.214844 112.050781 C 90.457031 114.785156 79.777344 122.5 73.683594 141.285156 L 73.683594 45.578125 C 79.75 64.28125 90.4375 71.8125 108.054688 74.636719 C 104.9375 56.769531 97.574219 46.035156 79.734375 39.777344 L 172.226562 39.777344 C 154.433594 46.027344 147.039062 56.761719 144.285156 74.605469 C 161.765625 71.753906 172.347656 64.207031 178.382812 45.574219 L 178.382812 141.285156 C 172.324219 122.601562 161.699219 114.867188 144.132812 112.09375 C 146.769531 130.550781 154.054688 141.714844 172.226562 148.027344 L 79.703125 148.027344 C 97.914062 141.707031 105.207031 130.53125 108.214844 112.050781 Z M 111.386719 111.628906 L 109.996094 111.800781 C 107.964844 127.871094 102.1875 138.453125 89.761719 145.914062 L 162.234375 145.914062 C 149.773438 138.460938 144.003906 127.886719 142.289062 111.839844 L 140.648438 111.628906 L 133.914062 111.628906 C 130.539062 111.628906 130.945312 113.3125 125.976562 113.3125 C 121.019531 113.3125 121.453125 111.628906 118.160156 111.628906 Z M 99.671875 104.730469 L 92.023438 104.730469 C 91.507812 105.753906 90.277344 106.425781 89.054688 106.425781 C 87.269531 106.425781 85.714844 104.890625 85.714844 103.011719 C 84.558594 102.714844 84.121094 102.230469 84.121094 101.628906 C 84.121094 101.03125 84.5625 100.539062 85.140625 100.539062 C 85.714844 98.410156 87.265625 96.863281 89.054688 96.863281 C 90.390625 96.863281 91.546875 97.730469 92.023438 98.933594 L 99.621094 98.933594 L 99.527344 88.886719 L 92.015625 88.886719 C 91.5 89.824219 90.269531 90.542969 89.046875 90.542969 C 87.265625 90.542969 85.707031 89.046875 85.707031 87.203125 C 84.554688 86.863281 84.113281 86.351562 84.113281 85.820312 C 84.113281 85.148438 84.550781 84.65625 85.125 84.65625 C 85.707031 82.566406 87.257812 81.023438 89.046875 81.023438 C 90.382812 81.023438 91.539062 81.847656 92.015625 83.078125 L 99.484375 83.078125 L 99.4375 76.871094 L 101.46875 75.464844 C 89.75 72.582031 81.75 66.660156 75.707031 55.9375 L 75.707031 130.871094 C 81.488281 120.636719 89.054688 114.675781 99.722656 111.621094 Z M 90.8125 102.714844 L 87.519531 102.714844 C 87.519531 103.847656 88.066406 104.695312 89.046875 104.695312 C 90.019531 104.695312 90.8125 103.847656 90.8125 102.835938 Z M 87.519531 100.539062 L 90.8125 100.539062 C 90.8125 99.484375 90.019531 98.714844 89.046875 98.714844 C 88.070312 98.714844 87.519531 99.492188 87.519531 100.539062 Z M 87.519531 100.539062 "/>
<path style=" stroke:none;fill-rule:nonzero;fill:rgb(100%,100%,100%);fill-opacity:1;" d="M 146.480469 105.96875 C 146.480469 105.96875 141.011719 105.96875 136.125 105.96875 C 131.195312 105.96875 130.402344 106.152344 126.988281 107.570312 C 126.988281 107.570312 126.988281 82.300781 126.988281 80.390625 C 126.988281 77.441406 130.039062 75.632812 134.054688 75.632812 C 140 75.632812 143.1875 77.582031 146.472656 76.945312 L 146.472656 105.96875 "/>
<path style=" stroke:none;fill-rule:nonzero;fill:rgb(100%,100%,100%);fill-opacity:1;" d="M 124.925781 107.570312 C 121.527344 106.226562 120.757812 105.96875 115.871094 105.96875 C 111.023438 105.96875 105.449219 105.96875 105.449219 105.96875 L 105.449219 76.941406 C 108.808594 77.582031 111.996094 75.632812 117.933594 75.632812 C 121.921875 75.632812 124.921875 77.429688 124.921875 80.390625 C 124.925781 82.308594 124.925781 107.570312 124.925781 107.570312 "/>
<path style=" stroke:none;fill-rule:nonzero;fill:rgb(100%,100%,100%);fill-opacity:1;" d="M 125.984375 111.363281 C 130.953125 111.363281 130.546875 109.492188 133.847656 109.492188 L 150.582031 109.492188 L 150.582031 78.351562 L 148.625 76.910156 L 148.625 107.804688 C 145.113281 107.804688 139.164062 107.804688 135.039062 107.804688 C 129.066406 107.804688 131.050781 109.679688 125.984375 109.679688 C 121.527344 109.679688 123.265625 107.804688 116.96875 107.804688 C 112.835938 107.804688 106.929688 107.804688 103.382812 107.804688 L 103.382812 76.910156 L 101.386719 78.351562 L 101.386719 109.492188 L 118.160156 109.492188 C 121.453125 109.492188 121.015625 111.363281 125.984375 111.363281 "/>
</g>
</svg>
