<?xml version="1.0" encoding="UTF-8"?>
<svg version="1.1" xmlns="http://www.w3.org/2000/svg" width="315" height="316">
<path d="M0 0 C1.24644287 -0.00472824 1.24644287 -0.00472824 2.51806641 -0.009552 C3.41187012 -0.00752777 4.30567383 -0.00550354 5.2265625 -0.00341797 C6.14743652 -0.00437469 7.06831055 -0.00533142 8.01708984 -0.00631714 C9.96386788 -0.00699757 11.9106482 -0.00515281 13.85742188 -0.00097656 C16.83989551 0.0043736 19.82221855 -0.00092618 22.8046875 -0.00732422 C24.69531283 -0.00666341 26.58593807 -0.0053822 28.4765625 -0.00341797 C29.37036621 -0.0054422 30.26416992 -0.00746643 31.18505859 -0.009552 C32.01602051 -0.00639984 32.84698242 -0.00324768 33.703125 0 C34.43354004 0.00079559 35.16395508 0.00159119 35.91650391 0.00241089 C37.8515625 0.12939453 37.8515625 0.12939453 40.8515625 1.12939453 C40.85210727 1.78500807 40.85265203 2.4406216 40.85321331 3.11610222 C40.8682091 19.10084141 40.91076846 35.08523707 40.98365307 51.06980705 C41.01824207 58.79998781 41.04365056 66.52999137 41.04711914 74.26025391 C41.05016756 81.00140141 41.07077517 87.74223285 41.11208707 94.48325837 C41.1333399 98.04957378 41.14605794 101.61544074 41.13771629 105.18181992 C41.12871251 109.17243283 41.15892757 113.16185863 41.19213867 117.15234375 C41.17920021 118.90778252 41.17920021 118.90778252 41.16600037 120.69868469 C41.25970324 127.4359395 42.26881721 132.1603422 45.68333912 138.00749397 C46.82084176 140.07359497 47.32523706 141.84867765 47.8515625 144.12939453 C53.02485799 150.63668446 61.03860266 153.55558667 69.0625 154.51220703 C79.91240138 154.89878309 88.30685647 152.16953872 96.390625 144.91064453 C98.01840819 142.9259677 98.37342738 141.62149274 98.8515625 139.12939453 C99.78058403 136.76111166 100.82202665 134.4570408 101.8515625 132.12939453 C102.5115625 132.12939453 103.1715625 132.12939453 103.8515625 132.12939453 C104.8579402 129.11026143 104.98573753 127.07346612 105.00305176 123.91598511 C105.01139542 122.83629456 105.01973907 121.756604 105.02833557 120.64419556 C105.03251999 119.4596579 105.03670441 118.27512024 105.04101562 117.0546875 C105.04930893 115.80739868 105.05760223 114.56010986 105.06614685 113.27502441 C105.08356442 110.56256801 105.09921515 107.85016769 105.11192322 105.1376915 C105.1321368 100.85250724 105.15978839 96.56739098 105.18859863 92.28225708 C105.2537995 82.41525875 105.3092742 72.5482102 105.36458588 62.68115234 C105.41539144 53.63330291 105.4682269 44.58547825 105.52911139 35.53769028 C105.55751948 31.27374244 105.58109344 27.00980288 105.60103607 22.74580741 C105.61751581 19.4789509 105.64032684 16.21213731 105.66210938 12.9453125 C105.66629379 11.75672638 105.67047821 10.56814026 105.67478943 9.34353638 C105.68313309 8.26948547 105.69147675 7.19543457 105.70007324 6.08883667 C105.70522697 5.1497389 105.71038071 4.21064114 105.71569061 3.24308586 C105.8515625 1.12939453 105.8515625 1.12939453 106.8515625 0.12939453 C109.95407451 0.04065318 113.0342437 0.01420998 116.13671875 0.03173828 C117.06753769 0.03315323 117.99835663 0.03456818 118.9573822 0.036026 C121.94297441 0.04164281 124.92849279 0.05419813 127.9140625 0.06689453 C129.93294163 0.07190737 131.95182193 0.07647065 133.97070312 0.08056641 C138.93101822 0.0916177 143.89127782 0.10889358 148.8515625 0.12939453 C148.89838348 17.41083733 148.93360068 34.6922602 148.95518684 51.97375202 C148.96547823 59.99871764 148.97949746 68.02364374 149.00244141 76.04858398 C149.02244098 83.04705797 149.03529446 90.04550332 149.03973949 97.0440051 C149.0423358 100.74607624 149.04839317 104.44806548 149.06302261 108.15011024 C149.0792613 112.29338769 149.079538 116.43652477 149.07861328 120.57983398 C149.08580383 121.79328491 149.09299438 123.00673584 149.10040283 124.25695801 C149.08309546 131.44988227 148.32172002 138.09776378 146.8515625 145.12939453 C146.71363281 146.20962891 146.57570312 147.28986328 146.43359375 148.40283203 C145.6872214 151.89926091 144.25198557 154.62198275 142.5390625 157.75439453 C141.94480469 158.86041016 141.35054687 159.96642578 140.73828125 161.10595703 C138.99458527 163.90020276 137.22692874 165.88064696 134.8515625 168.12939453 C134.5215625 168.83064453 134.1915625 169.53189453 133.8515625 170.25439453 C132.8515625 172.12939453 132.8515625 172.12939453 131.12890625 172.94189453 C128.09063705 174.52617213 125.91424616 176.66719095 123.4140625 179.00439453 C120.68712804 181.54548783 117.99432828 184.01686386 115.06640625 186.32470703 C112.77559744 187.93890923 112.77559744 187.93890923 111.8515625 190.12939453 C109.85497476 190.48259207 107.85416654 190.81208051 105.8515625 191.12939453 C102.67746185 192.28544388 99.57881995 193.57637059 96.4609375 194.87548828 C77.874657 201.3324104 56.88107166 199.60229322 39.29418945 191.13330078 C35.13434836 189.05075798 31.05923367 186.86353596 27.08203125 184.44580078 C24.80718137 182.99801482 24.80718137 182.99801482 21.8515625 182.12939453 C21.16390575 180.80676442 20.49951087 179.47192391 19.8515625 178.12939453 C18.21705723 176.42802255 18.21705723 176.42802255 16.3515625 174.94189453 C15.743125 174.43271484 15.1346875 173.92353516 14.5078125 173.39892578 C12.86686717 172.05821815 12.86686717 172.05821815 10.8515625 171.12939453 C10.7071875 170.46939453 10.5628125 169.80939453 10.4140625 169.12939453 C10.2284375 168.46939453 10.0428125 167.80939453 9.8515625 167.12939453 C8.8615625 166.79939453 7.8715625 166.46939453 6.8515625 166.12939453 C5.09765625 163.58251953 5.09765625 163.58251953 3.2890625 160.37939453 C2.38994141 158.80931641 2.38994141 158.80931641 1.47265625 157.20751953 C-1.14920031 152.22915093 -2.41223292 148.80099601 -2.1484375 143.12939453 C-2.8084375 143.12939453 -3.4684375 143.12939453 -4.1484375 143.12939453 C-6.96392546 132.99363789 -7.29549835 123.0913011 -7.26196289 112.61132812 C-7.26210892 111.40042511 -7.26225494 110.18952209 -7.2624054 108.94192505 C-7.2618321 105.65334848 -7.25685052 102.36481564 -7.24983144 99.07624769 C-7.24353883 95.62762616 -7.24298946 92.17900358 -7.24180603 88.7303772 C-7.23871002 82.21416411 -7.23052016 75.69796799 -7.22045654 69.18176234 C-7.20924142 61.75724843 -7.2037714 54.33273366 -7.19876111 46.90821338 C-7.18833593 31.6485973 -7.17077029 16.38899811 -7.1484375 1.12939453 C-4.41345169 0.21773259 -2.81329143 0.00306433 0 0 Z M38.8515625 123.12939453 C38.8515625 125.43939453 38.8515625 127.74939453 38.8515625 130.12939453 C39.1815625 130.12939453 39.5115625 130.12939453 39.8515625 130.12939453 C39.8515625 127.81939453 39.8515625 125.50939453 39.8515625 123.12939453 C39.5215625 123.12939453 39.1915625 123.12939453 38.8515625 123.12939453 Z M-5.1484375 125.12939453 C-5.1484375 128.42939453 -5.1484375 131.72939453 -5.1484375 135.12939453 C-4.8184375 135.12939453 -4.4884375 135.12939453 -4.1484375 135.12939453 C-4.1484375 131.82939453 -4.1484375 128.52939453 -4.1484375 125.12939453 C-4.4784375 125.12939453 -4.8084375 125.12939453 -5.1484375 125.12939453 Z M39.8515625 130.12939453 C40.8515625 132.12939453 40.8515625 132.12939453 40.8515625 132.12939453 Z M40.8515625 133.12939453 C41.8515625 135.12939453 41.8515625 135.12939453 41.8515625 135.12939453 Z M-4.1484375 135.12939453 C-3.1484375 138.12939453 -3.1484375 138.12939453 -3.1484375 138.12939453 Z M144.8515625 146.12939453 C145.8515625 148.12939453 145.8515625 148.12939453 145.8515625 148.12939453 Z M142.8515625 151.12939453 C143.8515625 153.12939453 143.8515625 153.12939453 143.8515625 153.12939453 Z " fill="#004790" transform="translate(85.1484375,93.87060546875)"/>
<path d="M0 0 C1.08748535 0.13921875 2.1749707 0.2784375 3.29541016 0.421875 C33.29997814 4.38638742 62.59515226 12.67866903 91.0625 22.8125 C92.25963623 23.22918945 92.25963623 23.22918945 93.48095703 23.65429688 C95.35669254 24.34524672 97.18534661 25.16165136 99 26 C100.51303606 30.53910817 99.49050192 34.52849424 98 39 C96 42 96 42 94 44 C93.54188325 45.97235333 93.54188325 45.97235333 93.375 48.125 C93.25125 49.40375 93.1275 50.6825 93 52 C92.34 52 91.68 52 91 52 C91 53.32 91 54.64 91 56 C90.01 56 89.02 56 88 56 C88.0309375 57.918125 88.0309375 57.918125 88.0625 59.875 C88.125 63.75 88.125 63.75 87 66 C83.36140319 67.57288644 80.97738919 66.53335439 77.3984375 65.15625 C76.28194824 64.73754639 75.16545898 64.31884277 74.01513672 63.88745117 C72.8138916 63.42959229 71.61264648 62.9717334 70.375 62.5 C30.37844406 47.67825162 -11.83155922 40.78084584 -54.4375 40.75 C-55.28560242 40.74932526 -56.13370483 40.74865051 -57.00750732 40.74795532 C-102.28492062 40.80457722 -145.79266813 49.66300855 -188.30322266 65.03759766 C-192.18198457 66.42181633 -196.08744403 67.7147355 -200 69 C-202.41859888 66.37108818 -203.00028575 64.99792828 -203.5 61.375 C-203.665 60.26125 -203.83 59.1475 -204 58 C-204.99 57.34 -205.98 56.68 -207 56 C-208.16796875 53.72265625 -208.16796875 53.72265625 -209.1875 51.0625 C-209.70376953 49.74958984 -209.70376953 49.74958984 -210.23046875 48.41015625 C-211 46 -211 46 -211 43 C-211.433125 42.13375 -211.433125 42.13375 -211.875 41.25 C-213.65685349 37.68629301 -215.15214298 33.94374599 -214.83666992 29.91333008 C-214 28 -214 28 -212.0324707 26.83081055 C-211.17226318 26.51926025 -210.31205566 26.20770996 -209.42578125 25.88671875 C-208.45995117 25.5294873 -207.49412109 25.17225586 -206.49902344 24.80419922 C-204.92169434 24.25143311 -204.92169434 24.25143311 -203.3125 23.6875 C-202.22614258 23.29578613 -201.13978516 22.90407227 -200.02050781 22.50048828 C-196.68787702 21.31067807 -193.34657063 20.1499605 -190 19 C-189.06269043 18.67563965 -188.12538086 18.3512793 -187.15966797 18.01708984 C-127.25448608 -2.48574693 -62.7213958 -8.26195249 0 0 Z M-208 48 C-207 50 -207 50 -207 50 Z " fill="#F18D00" transform="translate(215,3)"/>
<path d="M0 0 C0.33 52.47 0.66 104.94 1 159 C0.34 159.33 -0.32 159.66 -1 160 C-1.28905095 161.92700632 -1.57248464 163.85677448 -1.75390625 165.796875 C-2.40108467 171.59066272 -4.26748063 176.02386396 -6.875 181.1875 C-7.40287109 182.27321289 -7.40287109 182.27321289 -7.94140625 183.38085938 C-8.46154297 184.42016602 -8.46154297 184.42016602 -8.9921875 185.48046875 C-9.46180908 186.42249146 -9.46180908 186.42249146 -9.94091797 187.38354492 C-11 189 -11 189 -14 191 C-14.33 191.99 -14.66 192.98 -15 194 C-15.99 194.33 -16.98 194.66 -18 195 C-18.12375 195.598125 -18.2475 196.19625 -18.375 196.8125 C-19.30082217 200.05287758 -21.29076078 201.1098331 -24 203 C-24.721875 203.33 -25.44375 203.66 -26.1875 204 C-28.18784763 204.86832185 -28.18784763 204.86832185 -28.9375 207.0625 C-29.288125 207.701875 -29.63875 208.34125 -30 209 C-30.75667969 209.14824219 -31.51335937 209.29648437 -32.29296875 209.44921875 C-35.26907118 210.05474608 -36.8794549 211.05127807 -39.375 212.75 C-55.07095572 222.54522049 -75.35074878 224.45928642 -93.3515625 221.38671875 C-105.4631008 218.44312218 -116.28711043 212.18476099 -127 206 C-124.46772592 202.95430953 -121.89863296 202.11051899 -118.1875 200.875 C-105.655552 196.21389685 -95.42095515 188.42095515 -86 179 C-84.2275067 178.886054 -82.45426079 178.77880337 -80.67944336 178.70996094 C-70.29017569 178.30495756 -62.12572183 176.94072073 -54 170 C-53.835 169.32839844 -53.67 168.65679687 -53.5 167.96484375 C-53 166 -53 166 -50 164 C-49.02234738 162.02726031 -49.02234738 162.02726031 -48.375 159.75 C-48.13523437 159.00234375 -47.89546875 158.2546875 -47.6484375 157.484375 C-46.35556934 152.53097649 -45.87215671 147.77151508 -45.84178162 142.65982056 C-45.8319928 141.40627777 -45.82220398 140.15273499 -45.81211853 138.86120605 C-45.80621555 137.4851078 -45.80040502 136.10900915 -45.79467773 134.73291016 C-45.78509048 133.27391284 -45.77507991 131.81491826 -45.76467896 130.35592651 C-45.73771558 126.40601207 -45.71665981 122.45608579 -45.69667697 118.5061307 C-45.67476438 114.37413167 -45.64740156 110.2421688 -45.62062073 106.11019897 C-45.570765 98.29057302 -45.52579984 90.47092693 -45.48259836 82.65126169 C-45.43316504 73.7467941 -45.37826956 64.84236281 -45.32291877 55.93793035 C-45.20920806 37.62532061 -45.10234538 19.3126766 -45 1 C-31.58027985 -5.70986007 -15.00370325 0 0 0 Z M-45 150 C-44 153 -44 153 -44 153 Z M-46 155 C-45 158 -45 158 -45 158 Z M-4 168 C-3 170 -3 170 -3 170 Z M-7 176 C-6 178 -6 178 -6 178 Z M-9 180 C-8 182 -8 182 -8 182 Z " fill="#00488F" transform="translate(307,94)"/>
<path d="M0 0 C14.19 0 28.38 0 43 0 C43.33 51.48 43.66 102.96 44 156 C44.99 156 45.98 156 47 156 C47.62762455 157.22782862 48.25196065 158.45733836 48.875 159.6875 C49.24753906 160.41710937 49.62007812 161.14671875 50.00390625 161.8984375 C51 164 51 164 51.8125 166.8125 C53.62853204 170.15782217 56.57024082 170.62809633 60 172 C60.33 172.99 60.66 173.98 61 175 C66.13843216 177.34384625 70.29572422 178.0830019 75.94995117 178.15551758 C84.92935069 178.29145902 84.92935069 178.29145902 88.66796875 180.765625 C90.75 182.9375 90.75 182.9375 92.421875 185.08984375 C94.84297536 188.02033403 97.45205125 188.81735042 101 190 C101.33 190.99 101.66 191.98 102 193 C104.4853009 194.44088279 106.91166069 195.71181107 109.5 196.9375 C110.22380859 197.28941406 110.94761719 197.64132812 111.69335938 198.00390625 C116.74724986 200.44714784 121.84016585 202.78864251 127 205 C126.34 205.66 125.68 206.32 125 207 C124.34 207.99 123.68 208.98 123 210 C121.33856905 210.35851931 119.67061474 210.68705386 118 211 C115.85145323 212.05761798 113.72836673 213.16766053 111.625 214.3125 C93.7254308 223.46905305 72.5786894 225.33702735 53.2734375 219.28515625 C48.88235321 217.56121027 44.71277581 215.55258606 40.5859375 213.26953125 C38.02207861 212.0108392 35.81238954 211.42135078 33 211 C32.67 210.01 32.34 209.02 32 208 C30.26773725 206.39187335 28.4654991 204.85802684 26.625 203.375 C25.64789063 202.57835937 24.67078125 201.78171875 23.6640625 200.9609375 C21.09857408 198.86191304 21.09857408 198.86191304 18 198 C17.66666667 196.66666667 17.33333333 195.33333333 17 194 C16.01 193.67 15.02 193.34 14 193 C13.66666667 191.66666667 13.33333333 190.33333333 13 189 C12.01 188.67 11.02 188.34 10 188 C8.65675939 185.75931043 7.49628535 183.5970973 6.375 181.25 C6.06304688 180.62867188 5.75109375 180.00734375 5.4296875 179.3671875 C2.98286291 174.36807174 2 170.53487824 2 165 C1.69521205 163.39914626 1.36382645 161.80325415 1.01419067 160.21159363 C-0.3318887 153.02264986 -0.26541335 145.90336346 -0.22705078 138.61450195 C-0.22648546 137.09565743 -0.22680559 135.57681235 -0.22793579 134.05796814 C-0.22850558 129.967792 -0.21681231 125.87773508 -0.20278788 121.78758645 C-0.19021773 117.50082787 -0.18910509 113.21406604 -0.18673706 108.92729187 C-0.18054066 100.82445876 -0.16415493 92.72168012 -0.14403808 84.61887091 C-0.12162157 75.38784387 -0.11067123 66.15681411 -0.10064721 56.92576659 C-0.07978692 37.95047397 -0.04313388 18.97525596 0 0 Z M4 172 C5 174 5 174 5 174 Z M5 174 C6 176 6 176 6 176 Z M6 176 C7 178 7 178 7 178 Z " fill="#00488F" transform="translate(8,94)"/>
<path d="M0 0 C0.33 0 0.66 0 1 0 C1.33 52.47 1.66 104.94 2 159 C1.67 159 1.34 159 1 159 C0.08936515 155.12247802 -0.12349733 151.53122291 -0.12025452 147.55229187 C-0.12162918 146.24963882 -0.12300385 144.94698578 -0.12442017 143.6048584 C-0.12088145 142.1684568 -0.11724665 140.73205543 -0.11352539 139.2956543 C-0.11324321 137.77769472 -0.11340186 136.25973501 -0.1139679 134.74177551 C-0.11425466 130.62648838 -0.1083774 126.51123043 -0.10139394 122.39595008 C-0.09514034 118.09313591 -0.09455501 113.79032106 -0.09336853 109.48750305 C-0.09026114 101.34199064 -0.08205571 93.19649166 -0.07201904 85.05098516 C-0.06083954 75.77656141 -0.05534282 66.50213703 -0.05032361 57.22770822 C-0.03987262 38.15179787 -0.02228462 19.07590001 0 0 Z " fill="#003E7F" transform="translate(6,95)"/>
<path d="M0 0 C0.33 0 0.66 0 1 0 C1 50.16 1 100.32 1 152 C0.67 152 0.34 152 0 152 C0 101.84 0 51.68 0 0 Z " fill="#0054AA" transform="translate(308,95)"/>
<path d="M0 0 C0.33 0 0.66 0 1 0 C1 49.5 1 99 1 150 C0.67 150 0.34 150 0 150 C0 100.5 0 51 0 0 Z " fill="#0055A9" transform="translate(52,95)"/>
<path d="M0 0 C0.33 0 0.66 0 1 0 C1 43.89 1 87.78 1 133 C0.67 133 0.34 133 0 133 C0 89.11 0 45.22 0 0 Z " fill="#003F80" transform="translate(235,95)"/>
<path d="M0 0 C0.33 0 0.66 0 1 0 C1 42.24 1 84.48 1 128 C0.67 128 0.34 128 0 128 C0 85.76 0 43.52 0 0 Z " fill="#0004F8" transform="translate(189,95)"/>
<path d="M0 0 C13.86 0 27.72 0 42 0 C42 0.33 42 0.66 42 1 C28.14 1 14.28 1 0 1 C0 0.67 0 0.34 0 0 Z " fill="#0000F2" transform="translate(192,92)"/>
<path d="M0 0 C13.86 0 27.72 0 42 0 C42 0.33 42 0.66 42 1 C28.14 1 14.28 1 0 1 C0 0.67 0 0.34 0 0 Z " fill="#0000F2" transform="translate(81,92)"/>
<path d="M0 0 C13.53 0 27.06 0 41 0 C41 0.33 41 0.66 41 1 C27.47 1 13.94 1 0 1 C0 0.67 0 0.34 0 0 Z " fill="#0000FF" transform="translate(265,92)"/>
<path d="M0 0 C13.53 0 27.06 0 41 0 C41 0.33 41 0.66 41 1 C27.47 1 13.94 1 0 1 C0 0.67 0 0.34 0 0 Z " fill="#0000FF" transform="translate(9,92)"/>
<path d="M0 0 C12.54 0 25.08 0 38 0 C38 0.33 38 0.66 38 1 C25.46 1 12.92 1 0 1 C0 0.67 0 0.34 0 0 Z " fill="#F57000" transform="translate(141,44)"/>
<path d="M0 0 C6.93 0 13.86 0 21 0 C21 0.33 21 0.66 21 1 C14.07 1 7.14 1 0 1 C0 0.67 0 0.34 0 0 Z " fill="#005A93" transform="translate(147,293)"/>
<path d="M0 0 C4.95 0.33 9.9 0.66 15 1 C15 1.33 15 1.66 15 2 C9.72 2 4.44 2 -1 2 C-0.67 1.34 -0.34 0.68 0 0 Z " fill="#002767" transform="translate(222,270)"/>
<path d="M0 0 C0.66 0.66 1.32 1.32 2 2 C-3.28 2 -8.56 2 -14 2 C-14 1.67 -14 1.34 -14 1 C-11.70954632 0.77872902 -9.41755236 0.5733496 -7.125 0.375 C-5.84882812 0.25898438 -4.57265625 0.14296875 -3.2578125 0.0234375 C-2.18273437 0.01570313 -1.10765625 0.00796875 0 0 Z " fill="#002766" transform="translate(92,270)"/>
<path d="M0 0 C0 0.33 0 0.66 0 1 C-7.92 1.495 -7.92 1.495 -16 2 C-16 1.67 -16 1.34 -16 1 C-10.61509359 0.08342019 -5.45769811 -0.11138159 0 0 Z " fill="#ED8000" transform="translate(125,46)"/>
<path d="M0 0 C4.62 0 9.24 0 14 0 C14 0.33 14 0.66 14 1 C9.38 1 4.76 1 0 1 C0 0.67 0 0.34 0 0 Z " fill="#FF8800" transform="translate(127,45)"/>
<path d="M0 0 C4.29 0 8.58 0 13 0 C13 0.33 13 0.66 13 1 C8.71 1 4.42 1 0 1 C0 0.67 0 0.34 0 0 Z " fill="#003989" transform="translate(151,247)"/>
<path d="M0 0 C4.29 0 8.58 0 13 0 C13 0.33 13 0.66 13 1 C8.71 1 4.42 1 0 1 C0 0.67 0 0.34 0 0 Z " fill="#F1A600" transform="translate(179,45)"/>
<path d="M0 0 C0 0.33 0 0.66 0 1 C-5.94 1.495 -5.94 1.495 -12 2 C-12 1.67 -12 1.34 -12 1 C-7.9472484 0.01751476 -4.16138263 -0.08159574 0 0 Z " fill="#EA8400" transform="translate(104,2)"/>
<path d="M0 0 C0 0.33 0 0.66 0 1 C-3.3 1.33 -6.6 1.66 -10 2 C-6.00889681 0.0044484 -4.30013434 -0.19546065 0 0 Z " fill="#FF6F00" transform="translate(91,4)"/>
<path d="M0 0 C0.33 0 0.66 0 1 0 C0.67 2.97 0.34 5.94 0 9 C-0.33 9 -0.66 9 -1 9 C-0.67 6.03 -0.34 3.06 0 0 Z " fill="#002086" transform="translate(234,228)"/>
<path d="M0 0 C-3.13498292 1.85776765 -5.37471432 2.20140476 -9 2 C-5.86501708 0.14223235 -3.62528568 -0.20140476 0 0 Z " fill="#DD6A00" transform="translate(85,52)"/>
<path d="M0 0 C0.33 0 0.66 0 1 0 C0.67 2.64 0.34 5.28 0 8 C-0.98120464 4.94736336 -0.98120464 3.05263664 0 0 Z " fill="#003367" transform="translate(306,254)"/>
<path d="M0 0 C2.64 0.33 5.28 0.66 8 1 C5.39417629 1.93065133 4.35801776 2.14917407 1.75 1.0625 C1.1725 0.711875 0.595 0.36125 0 0 Z " fill="#E28800" transform="translate(240,6)"/>
<path d="M0 0 C2.97 0 5.94 0 9 0 C9 0.33 9 0.66 9 1 C6.03 1 3.06 1 0 1 C0 0.67 0 0.34 0 0 Z " fill="#FF7F00" transform="translate(198,0)"/>
<path d="M0 0 C2.64 0 5.28 0 8 0 C8 0.33 8 0.66 8 1 C5.36 1 2.72 1 0 1 C0 0.67 0 0.34 0 0 Z " fill="#E76400" transform="translate(195,46)"/>
<path d="M0 0 C2.31 0.33 4.62 0.66 7 1 C5.1875 1.625 5.1875 1.625 3 2 C2.01 1.34 1.02 0.68 0 0 Z " fill="#FF7A00" transform="translate(250,8)"/>
<path d="M0 0 C2.64 0 5.28 0 8 0 C8 0.33 8 0.66 8 1 C5.36 1 2.72 1 0 1 C0 0.67 0 0.34 0 0 Z " fill="#DC8900" transform="translate(113,0)"/>
<path d="M0 0 C2.31 0 4.62 0 7 0 C7 0.33 7 0.66 7 1 C4.69 1 2.38 1 0 1 C0 0.67 0 0.34 0 0 Z " fill="#DA7900" transform="translate(203,47)"/>
<path d="M0 0 C2.31 0 4.62 0 7 0 C7 0.33 7 0.66 7 1 C4.69 1 2.38 1 0 1 C0 0.67 0 0.34 0 0 Z " fill="#F58500" transform="translate(207,1)"/>
<path d="M0 0 C2.31 0 4.62 0 7 0 C7 0.33 7 0.66 7 1 C4.69 1 2.38 1 0 1 C0 0.67 0 0.34 0 0 Z " fill="#DC7600" transform="translate(106,1)"/>
<path d="M0 0 C0.66 0.33 1.32 0.66 2 1 C0.02 1.99 0.02 1.99 -2 3 C-1.34 2.01 -0.68 1.02 0 0 Z " fill="#005CA2" transform="translate(213,278)"/>
<path d="M0 0 C2.475 0.495 2.475 0.495 5 1 C4.01 1.33 3.02 1.66 2 2 C1.34 1.34 0.68 0.68 0 0 Z " fill="#001C4D" transform="translate(69,268)"/>
<path d="M0 0 C0.99 0.33 1.98 0.66 3 1 C1.35 1.33 -0.3 1.66 -2 2 C-1.34 1.34 -0.68 0.68 0 0 Z " fill="#001C63" transform="translate(170,244)"/>
<path d="M0 0 C2.475 0.495 2.475 0.495 5 1 C4.01 1.33 3.02 1.66 2 2 C1.34 1.34 0.68 0.68 0 0 Z " fill="#F49B00" transform="translate(267,60)"/>
<path d="M0 0 C1.98 0 3.96 0 6 0 C6 0.33 6 0.66 6 1 C4.02 1 2.04 1 0 1 C0 0.67 0 0.34 0 0 Z " fill="#FF8600" transform="translate(96,49)"/>
<path d="M0 0 C1.98 0 3.96 0 6 0 C6 0.33 6 0.66 6 1 C4.02 1 2.04 1 0 1 C0 0.67 0 0.34 0 0 Z " fill="#FF7F00" transform="translate(212,48)"/>
<path d="M0 0 C1.98 0 3.96 0 6 0 C6 0.33 6 0.66 6 1 C4.02 1 2.04 1 0 1 C0 0.67 0 0.34 0 0 Z " fill="#D48600" transform="translate(102,48)"/>
<path d="M0 0 C0.99 0.33 1.98 0.66 3 1 C1.35 1.33 -0.3 1.66 -2 2 C-1.34 1.34 -0.68 0.68 0 0 Z " fill="#FF8D00" transform="translate(3,28)"/>
<path d="M0 0 C0.99 0.33 1.98 0.66 3 1 C1.35 1.33 -0.3 1.66 -2 2 C-1.34 1.34 -0.68 0.68 0 0 Z " fill="#FF8600" transform="translate(30,18)"/>
<path d="M0 0 C1.98 0 3.96 0 6 0 C6 0.33 6 0.66 6 1 C4.02 1 2.04 1 0 1 C0 0.67 0 0.34 0 0 Z " fill="#D48D00" transform="translate(222,3)"/>
<path d="M0 0 C1.98 0 3.96 0 6 0 C6 0.33 6 0.66 6 1 C4.02 1 2.04 1 0 1 C0 0.67 0 0.34 0 0 Z " fill="#E9A200" transform="translate(216,2)"/>
<path d="M0 0 C1.65 0 3.3 0 5 0 C5 0.33 5 0.66 5 1 C3.35 1 1.7 1 0 1 C0 0.67 0 0.34 0 0 Z " fill="#0048A9" transform="translate(168,292)"/>
<path d="M0 0 C1.65 0 3.3 0 5 0 C5 0.33 5 0.66 5 1 C3.35 1 1.7 1 0 1 C0 0.67 0 0.34 0 0 Z " fill="#0050AE" transform="translate(142,292)"/>
<path d="M0 0 C1.65 0 3.3 0 5 0 C5 0.33 5 0.66 5 1 C3.35 1 1.7 1 0 1 C0 0.67 0 0.34 0 0 Z " fill="#FF9000" transform="translate(229,51)"/>
<path d="M0 0 C1.65 0 3.3 0 5 0 C5 0.33 5 0.66 5 1 C3.35 1 1.7 1 0 1 C0 0.67 0 0.34 0 0 Z " fill="#EE5400" transform="translate(90,50)"/>
<path d="M0 0 C1.65 0 3.3 0 5 0 C5 0.33 5 0.66 5 1 C3.35 1 1.7 1 0 1 C0 0.67 0 0.34 0 0 Z " fill="#FFA100" transform="translate(218,49)"/>
<path d="M0 0 C1.65 0 3.3 0 5 0 C5 0.33 5 0.66 5 1 C3.35 1 1.7 1 0 1 C0 0.67 0 0.34 0 0 Z " fill="#F28700" transform="translate(75,6)"/>
<path d="M0 0 C1.65 0 3.3 0 5 0 C5 0.33 5 0.66 5 1 C3.35 1 1.7 1 0 1 C0 0.67 0 0.34 0 0 Z " fill="#CC7F00" transform="translate(234,5)"/>
<path d="M0 0 C1.65 0 3.3 0 5 0 C5 0.33 5 0.66 5 1 C3.35 1 1.7 1 0 1 C0 0.67 0 0.34 0 0 Z " fill="#F2BA00" transform="translate(229,4)"/>
<path d="M0 0 C4 1 4 1 4 1 Z " fill="#002A94" transform="translate(247,315)"/>
<path d="M0 0 C0.99 0.33 1.98 0.66 3 1 C2.01 1 1.02 1 0 1 C0 0.67 0 0.34 0 0 Z " fill="#00158A" transform="translate(38,302)"/>
<path d="M0 0 C0.99 0.33 1.98 0.66 3 1 C2.01 1 1.02 1 0 1 C0 0.67 0 0.34 0 0 Z " fill="#005454" transform="translate(32,297)"/>
<path d="M0 0 C0.66 0.33 1.32 0.66 2 1 C1.01 1 0.02 1 -1 1 C-0.67 0.67 -0.34 0.34 0 0 Z " fill="#00354A" transform="translate(195,290)"/>
<path d="M0 0 C4 1 4 1 4 1 Z " fill="#0025C9" transform="translate(174,291)"/>
<path d="M0 0 C4 1 4 1 4 1 Z " fill="#002A94" transform="translate(137,291)"/>
<path d="M0 0 C0.99 0.33 1.98 0.66 3 1 C2.01 1 1.02 1 0 1 C0 0.67 0 0.34 0 0 Z " fill="#00358A" transform="translate(114,288)"/>
<path d="M0 0 C4 1 4 1 4 1 Z " fill="#002574" transform="translate(74,270)"/>
<path d="M0 0 C0.66 0.33 1.32 0.66 2 1 C1.01 1 0.02 1 -1 1 C-0.67 0.67 -0.34 0.34 0 0 Z " fill="#002554" transform="translate(251,263)"/>
<path d="M0 0 C1 4 1 4 1 4 Z " fill="#0064A9" transform="translate(8,255)"/>
<path d="M0 0 C4 1 4 1 4 1 Z " fill="#0025B4" transform="translate(147,246)"/>
<path d="M0 0 C1 4 1 4 1 4 Z " fill="#0094A9" transform="translate(53,245)"/>
<path d="M0 0 C4 1 4 1 4 1 Z " fill="#AF5F00" transform="translate(252,56)"/>
<path d="M0 0 C4 1 4 1 4 1 Z " fill="#FFC900" transform="translate(68,55)"/>
<path d="M0 0 C4 1 4 1 4 1 Z " fill="#FF6A00" transform="translate(244,54)"/>
<path d="M0 0 C4 1 4 1 4 1 Z " fill="#E99400" transform="translate(239,53)"/>
<path d="M0 0 C4 1 4 1 4 1 Z " fill="#F27000" transform="translate(235,52)"/>
<path d="M0 0 C4 1 4 1 4 1 Z " fill="#FF8900" transform="translate(86,51)"/>
<path d="M0 0 C4 1 4 1 4 1 Z " fill="#FFA900" transform="translate(225,50)"/>
<path d="M0 0 C4 1 4 1 4 1 Z " fill="#EF7400" transform="translate(50,12)"/>
<path d="M0 0 C4 1 4 1 4 1 Z " fill="#FF5F00" transform="translate(258,10)"/>
<path d="M0 0 C4 1 4 1 4 1 Z " fill="#DF7400" transform="translate(58,10)"/>
<path d="M0 0 C4 1 4 1 4 1 Z " fill="#D99400" transform="translate(66,8)"/>
<path d="M0 0 C4 1 4 1 4 1 Z " fill="#FF6A00" transform="translate(71,7)"/>
<path d="M0 0 C3 1 3 1 3 1 Z " fill="#00697F" transform="translate(209,315)"/>
<path d="M0 0 C3 1 3 1 3 1 Z " fill="#00318D" transform="translate(103,315)"/>
<path d="M0 0 C3 1 3 1 3 1 Z " fill="#00389B" transform="translate(64,315)"/>
<path d="M0 0 C3 1 3 1 3 1 Z " fill="#003F54" transform="translate(251,314)"/>
<path d="M0 0 C3 1 3 1 3 1 Z " fill="#0046B8" transform="translate(206,314)"/>
<path d="M0 0 C3 1 3 1 3 1 Z " fill="#0038C6" transform="translate(106,314)"/>
<path d="M0 0 C3 1 3 1 3 1 Z " fill="#003146" transform="translate(61,314)"/>
<path d="M0 0 C3 1 3 1 3 1 Z " fill="#001C63" transform="translate(254,313)"/>
<path d="M0 0 C3 1 3 1 3 1 Z " fill="#003F54" transform="translate(129,295)"/>
<path d="M0 0 C3 1 3 1 3 1 Z " fill="#001C63" transform="translate(126,294)"/>
<path d="M0 0 C3 1 3 1 3 1 Z " fill="#003F54" transform="translate(178,290)"/>
<path d="M0 0 C3 1 3 1 3 1 Z " fill="#003855" transform="translate(134,290)"/>
<path d="M0 0 C3 1 3 1 3 1 Z " fill="#003FA9" transform="translate(181,289)"/>
<path d="M0 0 C0.66 0.66 1.32 1.32 2 2 C1.34 2 0.68 2 0 2 C0 1.34 0 0.68 0 0 Z " fill="#003871" transform="translate(24,288)"/>
<path d="M0 0 C3 1 3 1 3 1 Z " fill="#0031B8" transform="translate(237,270)"/>
<path d="M0 0 C3 1 3 1 3 1 Z " fill="#00152A" transform="translate(243,268)"/>
<path d="" fill="#003163" transform="translate(0,0)"/>
<path d="M0 0 C3 1 3 1 3 1 Z " fill="#00389B" transform="translate(164,246)"/>
<path d="M0 0 C3 1 3 1 3 1 Z " fill="#003838" transform="translate(144,245)"/>
<path d="" fill="#003FA9" transform="translate(0,0)"/>
<path d="" fill="#003146" transform="translate(0,0)"/>
<path d="M0 0 C3 1 3 1 3 1 Z " fill="#FF6300" transform="translate(290,68)"/>
<path d="M0 0 C3 1 3 1 3 1 Z " fill="#FFE200" transform="translate(287,67)"/>
<path d="M0 0 C3 1 3 1 3 1 Z " fill="#E25500" transform="translate(32,66)"/>
<path d="M0 0 C3 1 3 1 3 1 Z " fill="#E9A900" transform="translate(35,65)"/>
<path d="M0 0 C3 1 3 1 3 1 Z " fill="#FF7100" transform="translate(279,64)"/>
<path d="" fill="#AA5400" transform="translate(0,0)"/>
<path d="M0 0 C3 1 3 1 3 1 Z " fill="#BFA900" transform="translate(41,63)"/>
<path d="M0 0 C3 1 3 1 3 1 Z " fill="#FF7100" transform="translate(273,62)"/>
<path d="M0 0 C3 1 3 1 3 1 Z " fill="#E9A900" transform="translate(47,61)"/>
<path d="M0 0 C3 1 3 1 3 1 Z " fill="#FFB800" transform="translate(50,60)"/>
<path d="M0 0 C3 1 3 1 3 1 Z " fill="#E97F00" transform="translate(263,59)"/>
<path d="M0 0 C3 1 3 1 3 1 Z " fill="#FFC600" transform="translate(54,59)"/>
<path d="M0 0 C3 1 3 1 3 1 Z " fill="#FFC600" transform="translate(260,58)"/>
<path d="M0 0 C3 1 3 1 3 1 Z " fill="#FF5400" transform="translate(57,58)"/>
<path d="M0 0 C3 1 3 1 3 1 Z " fill="#E97F00" transform="translate(256,57)"/>
<path d="M0 0 C3 1 3 1 3 1 Z " fill="#FFC600" transform="translate(61,57)"/>
<path d="M0 0 C3 1 3 1 3 1 Z " fill="#FFB800" transform="translate(64,56)"/>
<path d="M0 0 C3 1 3 1 3 1 Z " fill="#FF9B00" transform="translate(248,55)"/>
<path d="M0 0 C3 1 3 1 3 1 Z " fill="#FFB800" transform="translate(72,54)"/>
<path d="M0 0 C3 1 3 1 3 1 Z " fill="#FFB800" transform="translate(8,26)"/>
<path d="M0 0 C3 1 3 1 3 1 Z " fill="#FF4600" transform="translate(11,25)"/>
<path d="M0 0 C3 1 3 1 3 1 Z " fill="#FF6300" transform="translate(298,22)"/>
<path d="M0 0 C3 1 3 1 3 1 Z " fill="#FF6300" transform="translate(22,21)"/>
<path d="M0 0 C3 1 3 1 3 1 Z " fill="#E9A900" transform="translate(292,20)"/>
<path d="M0 0 C3 1 3 1 3 1 Z " fill="#CD4600" transform="translate(289,19)"/>
<path d="M0 0 C3 1 3 1 3 1 Z " fill="#E95400" transform="translate(286,18)"/>
<path d="M0 0 C3 1 3 1 3 1 Z " fill="#AA5400" transform="translate(283,17)"/>
<path d="M0 0 C3 1 3 1 3 1 Z " fill="#FF7100" transform="translate(34,17)"/>
<path d="M0 0 C3 1 3 1 3 1 Z " fill="#FFB800" transform="translate(280,16)"/>
<path d="M0 0 C3 1 3 1 3 1 Z " fill="#FFB800" transform="translate(37,16)"/>
<path d="M0 0 C3 1 3 1 3 1 Z " fill="#FFAA00" transform="translate(276,15)"/>
<path d="M0 0 C3 1 3 1 3 1 Z " fill="#FF5400" transform="translate(40,15)"/>
<path d="M0 0 C3 1 3 1 3 1 Z " fill="#E9A900" transform="translate(273,14)"/>
<path d="M0 0 C3 1 3 1 3 1 Z " fill="#FFC600" transform="translate(43,14)"/>
<path d="M0 0 C3 1 3 1 3 1 Z " fill="#FFB800" transform="translate(269,13)"/>
<path d="M0 0 C3 1 3 1 3 1 Z " fill="#FF5400" transform="translate(47,13)"/>
<path d="M0 0 C3 1 3 1 3 1 Z " fill="#E97F00" transform="translate(266,12)"/>
<path d="M0 0 C3 1 3 1 3 1 Z " fill="#FF5400" transform="translate(262,11)"/>
<path d="M0 0 C3 1 3 1 3 1 Z " fill="#FFB800" transform="translate(55,11)"/>
<path d="M0 0 C3 1 3 1 3 1 Z " fill="#FFB800" transform="translate(63,9)"/>
<path d="M0 0 C2 1 2 1 2 1 Z " fill="#00557F" transform="translate(203,313)"/>
<path d="M0 0 C2 1 2 1 2 1 Z " fill="#006A94" transform="translate(110,313)"/>
<path d="M0 0 C2 1 2 1 2 1 Z " fill="#005F7F" transform="translate(58,313)"/>
<path d="M0 0 C2 1 2 1 2 1 Z " fill="#001F7F" transform="translate(257,312)"/>
<path d="M0 0 C2 1 2 1 2 1 Z " fill="#006A94" transform="translate(201,312)"/>
<path d="M0 0 C2 1 2 1 2 1 Z " fill="#005F7F" transform="translate(112,312)"/>
<path d="M0 0 C2 1 2 1 2 1 Z " fill="#001F7F" transform="translate(56,312)"/>
<path d="M0 0 C2 1 2 1 2 1 Z " fill="#002AD4" transform="translate(260,311)"/>
<path d="M0 0 C2 1 2 1 2 1 Z " fill="#006A94" transform="translate(198,311)"/>
<path d="M0 0 C2 1 2 1 2 1 Z " fill="#006A94" transform="translate(115,311)"/>
<path d="M0 0 C2 1 2 1 2 1 Z " fill="#002A94" transform="translate(53,311)"/>
<path d="M0 0 C2 1 2 1 2 1 Z " fill="#001FBF" transform="translate(196,310)"/>
<path d="M0 0 C2 1 2 1 2 1 Z " fill="#001FBF" transform="translate(117,310)"/>
<path d="M0 0 C2 1 2 1 2 1 Z " fill="#001F3F" transform="translate(51,310)"/>
<path d="M0 0 C2 1 2 1 2 1 Z " fill="#002AD4" transform="translate(264,309)"/>
<path d="M0 0 C2 1 2 1 2 1 Z " fill="#002A6A" transform="translate(194,309)"/>
<path d="M0 0 C2 1 2 1 2 1 Z " fill="#007F7F" transform="translate(119,309)"/>
<path d="M0 0 C2 1 2 1 2 1 Z " fill="#006A94" transform="translate(49,309)"/>
<path d="M0 0 C2 1 2 1 2 1 Z " fill="#002AD4" transform="translate(192,308)"/>
<path d="M0 0 C2 1 2 1 2 1 Z " fill="#001F3F" transform="translate(121,308)"/>
<path d="M0 0 C2 1 2 1 2 1 Z " fill="#002AD4" transform="translate(190,307)"/>
<path d="M0 0 C2 1 2 1 2 1 Z " fill="#002AD4" transform="translate(123,307)"/>
<path d="M0 0 C2 1 2 1 2 1 Z " fill="#002AD4" transform="translate(269,306)"/>
<path d="M0 0 C2 1 2 1 2 1 Z " fill="#003FBF" transform="translate(44,306)"/>
<path d="M0 0 C2 1 2 1 2 1 Z " fill="#0000BF" transform="translate(187,305)"/>
<path d="M0 0 C2 1 2 1 2 1 Z " fill="#002AAA" transform="translate(126,305)"/>
<path d="M0 0 C2 1 2 1 2 1 Z " fill="#003FBF" transform="translate(272,304)"/>
<path d="M0 0 C2 1 2 1 2 1 Z " fill="#003FBF" transform="translate(184,303)"/>
<path d="M0 0 C2 1 2 1 2 1 Z " fill="#0000BF" transform="translate(281,297)"/>
<path d="M0 0 C2 1 2 1 2 1 Z " fill="#005F7F" transform="translate(184,295)"/>
<path d="M0 0 C2 1 2 1 2 1 Z " fill="#005F7F" transform="translate(186,294)"/>
<path d="M0 0 C2 1 2 1 2 1 Z " fill="#001FBF" transform="translate(189,293)"/>
<path d="M0 0 C2 1 2 1 2 1 Z " fill="#001F3F" transform="translate(124,293)"/>
<path d="M0 0 C2 1 2 1 2 1 Z " fill="#002A94" transform="translate(191,292)"/>
<path d="M0 0 C2 1 2 1 2 1 Z " fill="#002AD4" transform="translate(122,292)"/>
<path d="M0 0 C2 1 2 1 2 1 Z " fill="#007F7F" transform="translate(119,291)"/>
<path d="M0 0 C2 1 2 1 2 1 Z " fill="#002AD4" transform="translate(117,290)"/>
<path d="M0 0 C2 1 2 1 2 1 Z " fill="#006A94" transform="translate(131,289)"/>
<path d="M0 0 C2 1 2 1 2 1 Z " fill="#002AD4" transform="translate(199,288)"/>
<path d="M0 0 C2 1 2 1 2 1 Z " fill="#001F7F" transform="translate(184,288)"/>
<path d="M0 0 C2 1 2 1 2 1 Z " fill="#005F7F" transform="translate(129,288)"/>
<path d="M0 0 C2 1 2 1 2 1 Z " fill="#002AAA" transform="translate(201,287)"/>
<path d="M0 0 C2 1 2 1 2 1 Z " fill="#002A94" transform="translate(187,287)"/>
<path d="M0 0 C2 1 2 1 2 1 Z " fill="#006A94" transform="translate(126,287)"/>
<path d="M0 0 C2 1 2 1 2 1 Z " fill="#001F3F" transform="translate(112,287)"/>
<path d="M0 0 C2 1 2 1 2 1 Z " fill="#001F3F" transform="translate(189,286)"/>
<path d="M0 0 C2 1 2 1 2 1 Z " fill="#001FBF" transform="translate(124,286)"/>
<path d="M0 0 C2 1 2 1 2 1 Z " fill="#002A55" transform="translate(204,285)"/>
<path d="M0 0 C2 1 2 1 2 1 Z " fill="#007F7F" transform="translate(191,285)"/>
<path d="M0 0 C2 1 2 1 2 1 Z " fill="#003F7F" transform="translate(122,285)"/>
<path d="M0 0 C2 1 2 1 2 1 Z " fill="#001F3F" transform="translate(193,284)"/>
<path d="M0 0 C2 1 2 1 2 1 Z " fill="#001FBF" transform="translate(120,284)"/>
<path d="M0 0 C2 1 2 1 2 1 Z " fill="#001F3F" transform="translate(207,283)"/>
<path d="M0 0 C2 1 2 1 2 1 Z " fill="#002AAA" transform="translate(118,283)"/>
<path d="M0 0 C2 1 2 1 2 1 Z " fill="#002AAA" transform="translate(198,281)"/>
<path d="M0 0 C2 1 2 1 2 1 Z " fill="#003F7F" transform="translate(115,281)"/>
<path d="M0 0 C2 1 2 1 2 1 Z " fill="#00007F" transform="translate(102,280)"/>
<path d="M0 0 C2 1 2 1 2 1 Z " fill="#003F3F" transform="translate(201,279)"/>
<path d="M0 0 C2 1 2 1 2 1 Z " fill="#003FBF" transform="translate(112,279)"/>
<path d="M0 0 C2 1 2 1 2 1 Z " fill="#003FBF" transform="translate(206,275)"/>
<path d="M0 0 C2 1 2 1 2 1 Z " fill="#002A55" transform="translate(241,269)"/>
<path d="M0 0 C2 1 2 1 2 1 Z " fill="#002AD4" transform="translate(247,266)"/>
<path d="M0 0 C2 1 2 1 2 1 Z " fill="#002A6A" transform="translate(142,244)"/>
<path d="M0 0 C2 1 2 1 2 1 Z " fill="#00007F" transform="translate(173,243)"/>
<path d="M0 0 C2 1 2 1 2 1 Z " fill="#003FBF" transform="translate(140,243)"/>
<path d="M0 0 C2 1 2 1 2 1 Z " fill="#003FBF" transform="translate(176,241)"/>
<path d="M0 0 C2 1 2 1 2 1 Z " fill="#001F3F" transform="translate(137,241)"/>
<path d="" fill="#004A94" transform="translate(0,0)"/>
<path d="M0 0 C2 1 2 1 2 1 Z " fill="#BF9400" transform="translate(17,72)"/>
<path d="M0 0 C2 1 2 1 2 1 Z " fill="#FF9400" transform="translate(20,71)"/>
<path d="M0 0 C2 1 2 1 2 1 Z " fill="#FF7F00" transform="translate(296,70)"/>
<path d="M0 0 C2 1 2 1 2 1 Z " fill="#FFBF00" transform="translate(22,70)"/>
<path d="M0 0 C2 1 2 1 2 1 Z " fill="#FF9400" transform="translate(293,69)"/>
<path d="M0 0 C2 1 2 1 2 1 Z " fill="#FF9400" transform="translate(25,69)"/>
<path d="M0 0 C2 1 2 1 2 1 Z " fill="#FF7F00" transform="translate(27,68)"/>
<path d="M0 0 C2 1 2 1 2 1 Z " fill="#FFAA00" transform="translate(30,67)"/>
<path d="M0 0 C2 1 2 1 2 1 Z " fill="#FFBF00" transform="translate(285,66)"/>
<path d="M0 0 C2 1 2 1 2 1 Z " fill="#D47F00" transform="translate(282,65)"/>
<path d="M0 0 C2 1 2 1 2 1 Z " fill="#FF7F00" transform="translate(38,64)"/>
<path d="M0 0 C2 1 2 1 2 1 Z " fill="#FF9400" transform="translate(276,63)"/>
<path d="M0 0 C2 1 2 1 2 1 Z " fill="#FF7F00" transform="translate(44,62)"/>
<path d="" fill="#FF9400" transform="translate(0,0)"/>
<path d="" fill="#FF9400" transform="translate(0,0)"/>
<path d="" fill="#FF7F00" transform="translate(0,0)"/>
<path d="" fill="#FF9400" transform="translate(0,0)"/>
<path d="" fill="#FF6A00" transform="translate(0,0)"/>
<path d="" fill="#D45500" transform="translate(0,0)"/>
<path d="" fill="#DF7F00" transform="translate(0,0)"/>
<path d="" fill="#D47F00" transform="translate(0,0)"/>
<path d="M0 0 C2 1 2 1 2 1 Z " fill="#FF9400" transform="translate(311,27)"/>
<path d="M0 0 C2 1 2 1 2 1 Z " fill="#FF5500" transform="translate(6,27)"/>
<path d="M0 0 C2 1 2 1 2 1 Z " fill="#D47F00" transform="translate(309,26)"/>
<path d="M0 0 C2 1 2 1 2 1 Z " fill="#FF7F00" transform="translate(306,25)"/>
<path d="M0 0 C2 1 2 1 2 1 Z " fill="#FF9400" transform="translate(304,24)"/>
<path d="M0 0 C2 1 2 1 2 1 Z " fill="#D47F00" transform="translate(14,24)"/>
<path d="M0 0 C2 1 2 1 2 1 Z " fill="#DFBF00" transform="translate(301,23)"/>
<path d="M0 0 C2 1 2 1 2 1 Z " fill="#FF7F00" transform="translate(17,23)"/>
<path d="M0 0 C2 1 2 1 2 1 Z " fill="#DF7F00" transform="translate(19,22)"/>
<path d="M0 0 C2 1 2 1 2 1 Z " fill="#FF7F00" transform="translate(295,21)"/>
<path d="M0 0 C2 1 2 1 2 1 Z " fill="#FF7F00" transform="translate(25,20)"/>
<path d="" fill="#0055AA" transform="translate(0,0)"/>
<path d="" fill="#0055AA" transform="translate(0,0)"/>
<path d="" fill="#003F7F" transform="translate(0,0)"/>
<path d="" fill="#0055AA" transform="translate(0,0)"/>
<path d="" fill="#0055AA" transform="translate(0,0)"/>
<path d="" fill="#007F7F" transform="translate(0,0)"/>
<path d="" fill="#00007F" transform="translate(0,0)"/>
<path d="" fill="#0055AA" transform="translate(0,0)"/>
<path d="" fill="#005555" transform="translate(0,0)"/>
<path d="" fill="#007F7F" transform="translate(0,0)"/>
<path d="" fill="#0055AA" transform="translate(0,0)"/>
<path d="" fill="#007F7F" transform="translate(0,0)"/>
<path d="" fill="#0055AA" transform="translate(0,0)"/>
<path d="" fill="#0055AA" transform="translate(0,0)"/>
<path d="" fill="#0055AA" transform="translate(0,0)"/>
<path d="" fill="#005555" transform="translate(0,0)"/>
<path d="" fill="#003F7F" transform="translate(0,0)"/>
<path d="" fill="#0055AA" transform="translate(0,0)"/>
<path d="" fill="#005555" transform="translate(0,0)"/>
<path d="" fill="#003F7F" transform="translate(0,0)"/>
<path d="" fill="#000000" transform="translate(0,0)"/>
<path d="" fill="#00007F" transform="translate(0,0)"/>
<path d="" fill="#0055AA" transform="translate(0,0)"/>
<path d="" fill="#00007F" transform="translate(0,0)"/>
<path d="" fill="#007F7F" transform="translate(0,0)"/>
<path d="" fill="#005555" transform="translate(0,0)"/>
<path d="" fill="#005555" transform="translate(0,0)"/>
<path d="" fill="#0055AA" transform="translate(0,0)"/>
<path d="" fill="#007F7F" transform="translate(0,0)"/>
<path d="" fill="#0055AA" transform="translate(0,0)"/>
<path d="" fill="#0055AA" transform="translate(0,0)"/>
<path d="" fill="#003F7F" transform="translate(0,0)"/>
<path d="" fill="#0055AA" transform="translate(0,0)"/>
<path d="" fill="#0055AA" transform="translate(0,0)"/>
<path d="" fill="#0055AA" transform="translate(0,0)"/>
<path d="" fill="#0055AA" transform="translate(0,0)"/>
<path d="" fill="#003F7F" transform="translate(0,0)"/>
<path d="" fill="#005555" transform="translate(0,0)"/>
<path d="" fill="#0055AA" transform="translate(0,0)"/>
<path d="" fill="#00007F" transform="translate(0,0)"/>
<path d="" fill="#0000FF" transform="translate(0,0)"/>
<path d="" fill="#007F7F" transform="translate(0,0)"/>
<path d="" fill="#0055AA" transform="translate(0,0)"/>
<path d="" fill="#003F7F" transform="translate(0,0)"/>
<path d="" fill="#007F7F" transform="translate(0,0)"/>
<path d="" fill="#007F7F" transform="translate(0,0)"/>
<path d="" fill="#007FFF" transform="translate(0,0)"/>
<path d="" fill="#003F7F" transform="translate(0,0)"/>
<path d="" fill="#0055AA" transform="translate(0,0)"/>
<path d="" fill="#0055AA" transform="translate(0,0)"/>
<path d="" fill="#0055AA" transform="translate(0,0)"/>
<path d="" fill="#0055AA" transform="translate(0,0)"/>
<path d="" fill="#003F7F" transform="translate(0,0)"/>
<path d="" fill="#003F7F" transform="translate(0,0)"/>
<path d="" fill="#003F7F" transform="translate(0,0)"/>
<path d="" fill="#005555" transform="translate(0,0)"/>
<path d="" fill="#0055AA" transform="translate(0,0)"/>
<path d="" fill="#0000FF" transform="translate(0,0)"/>
<path d="" fill="#0000FF" transform="translate(0,0)"/>
<path d="" fill="#0055AA" transform="translate(0,0)"/>
<path d="" fill="#003F7F" transform="translate(0,0)"/>
<path d="" fill="#0055AA" transform="translate(0,0)"/>
<path d="" fill="#0055AA" transform="translate(0,0)"/>
<path d="" fill="#005555" transform="translate(0,0)"/>
<path d="" fill="#007F7F" transform="translate(0,0)"/>
<path d="" fill="#005555" transform="translate(0,0)"/>
<path d="" fill="#003F7F" transform="translate(0,0)"/>
<path d="" fill="#007F7F" transform="translate(0,0)"/>
<path d="" fill="#003F3F" transform="translate(0,0)"/>
<path d="" fill="#0055AA" transform="translate(0,0)"/>
<path d="" fill="#0055AA" transform="translate(0,0)"/>
<path d="" fill="#003F7F" transform="translate(0,0)"/>
<path d="" fill="#003FBF" transform="translate(0,0)"/>
<path d="" fill="#0000AA" transform="translate(0,0)"/>
<path d="" fill="#0055AA" transform="translate(0,0)"/>
<path d="" fill="#0055AA" transform="translate(0,0)"/>
<path d="" fill="#005555" transform="translate(0,0)"/>
<path d="" fill="#0055AA" transform="translate(0,0)"/>
<path d="" fill="#0055AA" transform="translate(0,0)"/>
<path d="" fill="#007F7F" transform="translate(0,0)"/>
<path d="" fill="#0055AA" transform="translate(0,0)"/>
<path d="" fill="#005555" transform="translate(0,0)"/>
<path d="" fill="#003FBF" transform="translate(0,0)"/>
<path d="" fill="#007F7F" transform="translate(0,0)"/>
<path d="" fill="#0055AA" transform="translate(0,0)"/>
<path d="" fill="#003F7F" transform="translate(0,0)"/>
<path d="" fill="#005555" transform="translate(0,0)"/>
<path d="" fill="#003FBF" transform="translate(0,0)"/>
<path d="" fill="#005555" transform="translate(0,0)"/>
<path d="" fill="#0055AA" transform="translate(0,0)"/>
<path d="" fill="#0055AA" transform="translate(0,0)"/>
<path d="" fill="#0055AA" transform="translate(0,0)"/>
<path d="" fill="#003F7F" transform="translate(0,0)"/>
<path d="" fill="#0055AA" transform="translate(0,0)"/>
<path d="" fill="#0055AA" transform="translate(0,0)"/>
<path d="" fill="#0055AA" transform="translate(0,0)"/>
<path d="" fill="#0055AA" transform="translate(0,0)"/>
<path d="" fill="#005555" transform="translate(0,0)"/>
<path d="" fill="#007F7F" transform="translate(0,0)"/>
<path d="" fill="#003F7F" transform="translate(0,0)"/>
<path d="" fill="#0055AA" transform="translate(0,0)"/>
<path d="" fill="#FF0000" transform="translate(0,0)"/>
<path d="" fill="#FF7F00" transform="translate(0,0)"/>
</svg>
